<?xml version="1.0" encoding="utf-8"?>
<!-- Generator: Adobe Illustrator 26.2.1, SVG Export Plug-In . SVG Version: 6.00 Build 0)  -->
<svg version="1.1" id="レイヤー_1" xmlns="http://www.w3.org/2000/svg" xmlns:xlink="http://www.w3.org/1999/xlink" x="0px"
	 y="0px" viewBox="0 0 190.7 35.9" style="enable-background:new 0 0 190.7 35.9;" xml:space="preserve">
<style type="text/css">
	.st0{fill:#F08300;}
</style>
<g>
	<path class="st0" d="M28.4,18.6c0.1,0.2,0.1,0.7,0,1.5c-0.1,0.7-0.3,1.8-0.6,3.2c-0.2,1.2-0.6,2.4-1.2,3.7
		c-0.5,1.1-1.2,2.3-1.9,3.3c-0.7,1-1.6,1.9-2.6,2.8c-1,0.8-2.1,1.4-3.3,1.9c-1.5,0.6-2.8,0.8-4,0.7c-1.1-0.1-2.1-0.5-2.8-1.2
		s-1.4-1.5-2-2.6c-0.6-1-1.1-2.2-1.6-3.6c-0.4-1-0.7-2-1.1-3s-0.7-1.9-0.9-3c-0.5-1.4-1-2.8-1.4-4.3c-0.5-1.4-1-2.8-1.5-4.2
		c-0.4-1-0.8-2-1.2-3.1S1.4,8.6,0.9,7.6C0.7,7.5,0.5,7.3,0.4,7C0.2,6.8,0.1,6.6,0,6.3C0,6.2,0,6,0.1,5.9s0.2-0.2,0.4-0.4
		c0.2,0,0.4,0,0.5-0.2c0.2-0.1,0.3-0.1,0.4-0.1C1.6,5.1,2,5,2.5,4.9S3.4,4.7,4,4.7c0.4,0,0.8,0.1,1.1,0.1c0.3,0.1,0.5,0.3,0.7,0.6
		c0.1,0.2,0,0.5,0,1s0,0.9,0,1.2c0.2,1.5,0.5,2.9,1,4.4s0.9,3,1.2,4.5c0.4,1.7,0.9,3.4,1.4,5c0.5,1.7,1.1,3.3,1.7,4.9
		c0.2,0.6,0.4,1.2,0.7,1.8c0.2,0.6,0.5,1.2,0.9,1.6c0.4,0.5,0.8,0.8,1.3,1c0.5,0.3,1.1,0.4,1.9,0.3c0.4,0,0.8-0.1,1.2-0.3
		c0.4-0.1,0.7-0.3,1.2-0.5s1-0.4,1.6-0.8c0.5-0.3,1.1-0.8,1.6-1.3c0.5-0.4,1-0.9,1.4-1.5c0.4-0.4,0.8-0.8,1.2-1.4
		c0.5-0.7,1-1.4,1.4-2.2c0.4-0.8,0.8-1.5,1.2-2.4c0.3-0.6,0.5-1.3,0.8-1.9c0,0,0-0.1,0.1-0.3c0.1-0.1,0.1-0.2,0.3-0.2
		c0,0,0.1,0,0.2,0C28.3,18.5,28.3,18.6,28.4,18.6z M21.9,5.3C22,5.4,22,5.6,22,5.9s0,0.6,0.1,0.9c0,0.3,0,0.6,0.1,0.9
		c0,0.3,0,0.5,0,0.6c-0.2,0.3-0.4,0.5-0.7,0.6c-0.1,0-0.3,0-0.6-0.2c-0.1-0.1-0.3-0.2-0.5-0.3c-0.8-0.6-1.7-1.2-2.7-1.7
		c-0.9-0.5-1.8-1-2.8-1.5c-0.1,0-0.2-0.1-0.3-0.2s-0.2-0.1-0.2-0.2s0-0.1,0-0.2c0.1,0,0.1,0,0.2-0.1c0.3-0.1,0.6-0.1,1.2-0.2
		c0.5,0,1,0,1.7,0c0.6,0,1.1,0.1,1.7,0.1c0.5,0.1,0.9,0.1,1.3,0.2c0.2,0,0.5,0.1,0.8,0.2C21.5,4.8,21.7,5,21.9,5.3z M24.9,0.9
		C25,1.1,25,1.3,25.1,1.6s0.2,0.5,0.2,0.8c0.1,0.3,0.2,0.5,0.2,0.7s0,0.4,0,0.5c-0.2,0.4-0.4,0.7-0.8,0.8c-0.2,0.1-0.4,0-0.5-0.1
		C24,4.2,23.8,4.1,23.7,4c-1-0.5-2-1-2.8-1.5c-0.9-0.4-2-0.8-2.9-1.2c-0.1,0-0.2-0.1-0.3-0.1c-0.1-0.1-0.2-0.1-0.2-0.2
		s0-0.3,0.2-0.3c0.2-0.1,0.3-0.1,0.4-0.1c0.3-0.1,0.6-0.1,1.1-0.2s1-0.1,1.5-0.1s1,0,1.6-0.1c0.5,0,0.9,0,1.2,0c0.4,0,0.7,0.1,1,0.2
		C24.5,0.3,24.7,0.6,24.9,0.9z"/>
	<path class="st0" d="M56.3,18c0,0.7-0.1,1.4-0.5,1.8c-0.4,0.6-0.9,1-1.3,1.4c-0.5,0.4-1.1,0.7-1.8,0.9c-0.7,0.2-1.3,0.3-1.9,0.3
		c-0.5,0-1-0.1-1.4-0.3c-0.4-0.1-0.9-0.4-1.3-0.7c-0.1-0.1-0.3-0.2-0.6-0.4c-0.2-0.1-0.4-0.3-0.7-0.6c-0.3-0.2-0.6-0.4-0.9-0.7
		c-0.3-0.2-0.5-0.4-0.6-0.7c-0.2-0.2-0.3-0.4-0.3-0.6c0-0.1,0-0.2,0.2-0.2c0,0,0.2,0.1,0.5,0.2s0.5,0.3,0.7,0.3
		c0.9,0.3,1.8,0.6,2.7,0.7c0.8,0.1,1.7,0.2,2.8,0.2c0.6,0,1.1-0.1,1.5-0.4s0.6-0.8,0.6-1.4c0-0.9-0.3-1.5-0.8-2
		c-0.5-0.5-1.2-0.7-2-0.7c-0.5,0-1.1,0.1-1.8,0.3s-1.5,0.5-2.2,0.8c-0.7,0.3-1.5,0.6-2.2,1c-0.7,0.3-1.3,0.6-1.7,0.9
		c0.1,0.2,0.3,0.7,0.7,1.4c0.3,0.7,0.7,1.6,1.2,2.6c0.4,0.9,0.9,2,1.3,3c0.4,1,0.8,1.9,1.1,2.6c0.4,1,0.7,1.5,0.7,1.7
		c0,0.1-0.1,0.3-0.2,0.5s-0.3,0.3-0.6,0.4c-0.2,0.1-0.4,0.2-0.6,0.3c-0.2,0.1-0.4,0.1-0.6,0.1s-0.3,0-0.3-0.1c-0.1,0-0.1,0-0.1-0.2
		c0-0.1,0-0.2-0.1-0.3c0-0.1,0-0.2,0-0.3c0-0.1,0-0.2,0-0.3c0-0.1,0-0.2-0.1-0.3c-0.5-1.7-1.1-3.4-1.8-5.1c-0.7-1.6-1.5-3.3-2.3-4.9
		c-0.8,0.4-1.6,0.8-2.3,1.3s-1.5,0.9-2.3,1.4c-0.1,0-0.2,0.1-0.3,0.1c-0.2,0-0.3,0-0.3,0c-0.1,0-0.4-0.1-0.7-0.4s-0.6-0.6-0.9-0.9
		c-0.3-0.4-0.5-0.7-0.5-0.9c0-0.2,0.1-0.3,0.3-0.4c0.1,0,0.3,0,0.4-0.1c0.3,0,0.7-0.1,1.2-0.3c0.5-0.1,1-0.3,1.6-0.6
		c0.5-0.2,1-0.4,1.6-0.7c0.5-0.2,0.9-0.4,1.2-0.6c-0.1-0.3-0.3-0.6-0.5-0.9c-0.1-0.3-0.4-0.7-0.6-1c-0.2-0.3-0.4-0.6-0.6-1
		c-0.2-0.3-0.4-0.6-0.7-0.8c-0.1-0.1-0.3-0.2-0.3-0.3c-0.1,0-0.1-0.1-0.1-0.2c-0.1,0-0.1-0.1-0.1-0.2c0-0.1,0-0.2,0.1-0.3
		s0.2-0.1,0.4-0.3c0.1-0.1,0.3-0.1,0.6-0.3c0.2-0.1,0.4-0.1,0.6-0.1c0.2,0,0.4-0.1,0.6-0.1c0.1,0,0.3,0,0.4,0c0.1,0,0.1,0,0.3,0
		c0.1,0,0.1,0.1,0.3,0.1c0.1,0,0.1,0.2,0.1,0.4s0,0.3,0.1,0.4c0.1,0.7,0.2,1.3,0.5,1.9c0.2,0.6,0.5,1.2,0.8,1.8
		c0.6-0.2,1.3-0.5,2-0.9c0.7-0.3,1.4-0.6,2.2-0.8c0.7-0.2,1.5-0.4,2.3-0.6c0.7-0.1,1.4-0.2,2.2-0.3c0.6,0,1.3,0.1,1.9,0.2
		c0.6,0.1,1.1,0.4,1.6,0.8c0.4,0.3,0.8,0.7,1.1,1.3C56.2,16.6,56.3,17.3,56.3,18z M49,11.9c0,0.5-0.1,1-0.3,1.3s-0.6,0.4-1.2,0.4
		c-0.9,0-1.7-0.1-2.6-0.6c-0.1,0-0.3-0.1-0.5-0.3c-0.2-0.1-0.4-0.3-0.7-0.4c-0.2-0.1-0.4-0.3-0.6-0.4s-0.3-0.3-0.3-0.4
		c0,0,0-0.1,0.1-0.1s0.1,0,0.2,0c0.2,0,0.5,0,0.8,0.1c0.3,0,0.6,0.1,0.9,0.1c0.3,0,0.7,0,1.2-0.1c0.4,0,0.8-0.2,1.1-0.6
		c0-0.1,0-0.2,0.1-0.4c0.1-0.1,0.1-0.3,0.2-0.4c0.1-0.1,0.1-0.3,0.3-0.4c0.1-0.1,0.1-0.2,0.3-0.2c0.1,0,0.2,0.1,0.4,0.2
		c0.1,0.1,0.2,0.4,0.3,0.6c0.1,0.3,0.1,0.6,0.3,0.9C49,11.5,49,11.7,49,11.9z"/>
	<path class="st0" d="M81.9,17.7c0,0.1-0.1,0.5-0.3,1.1c-0.2,0.5-0.6,1.4-1,2.3s-1,1.7-1.6,2.6c-0.6,0.8-1.4,1.5-2.1,2.2
		c-0.7,0.6-1.6,1.2-2.5,1.6s-1.9,0.7-2.9,0.8c-1.3,0.1-2.3,0.1-3.2-0.3c-0.8-0.3-1.5-0.8-1.9-1.4c-0.4-0.7-0.8-1.4-1-2.4
		c-0.2-0.9-0.4-1.9-0.5-3c-0.1-0.8-0.2-1.7-0.2-2.5c-0.1-0.8-0.1-1.6-0.1-2.5c-0.1-1.2-0.2-2.3-0.3-3.5c-0.1-1.1-0.2-2.3-0.3-3.5
		c-0.1-0.8-0.2-1.7-0.3-2.6S63.2,4.8,63,3.9c-0.1-0.2-0.2-0.4-0.2-0.6c-0.1-0.2-0.2-0.4-0.1-0.6c0-0.1,0-0.2,0.1-0.3
		c0.1,0,0.2-0.1,0.4-0.2c0.1,0,0.3,0,0.4-0.1c0.1,0,0.2,0,0.3,0c0.2,0,0.5,0,0.9,0s0.8,0.1,1.2,0.2c0.3,0.1,0.6,0.2,0.9,0.3
		C67,2.7,67.1,3,67.2,3.2c0,0.2-0.1,0.4-0.2,0.8c-0.1,0.3-0.2,0.7-0.2,0.9c-0.1,1.2-0.2,2.4-0.1,3.5c0.1,1.2,0.1,2.4,0.1,3.7
		c0,1.4,0,2.7,0.1,4.1s0.2,2.7,0.3,4.1c0.1,0.5,0.1,1,0.2,1.5s0.1,1,0.4,1.4c0.2,0.4,0.5,0.8,0.8,1.1c0.3,0.3,0.8,0.5,1.4,0.6
		c0.3,0,0.6,0.1,1,0c0.3,0,0.6-0.1,1-0.1s0.9-0.1,1.4-0.3c0.5-0.2,1-0.4,1.5-0.7c0.5-0.2,0.9-0.5,1.4-0.9c0.4-0.2,0.8-0.5,1.2-0.8
		c0.5-0.4,1-0.9,1.5-1.4s0.9-1,1.4-1.6c0.3-0.4,0.6-0.9,1-1.3c0,0,0-0.1,0.2-0.2c0.1,0,0.1-0.1,0.2-0.1c0,0,0,0,0.1,0.1
		C81.8,17.6,81.8,17.7,81.9,17.7z M79.5,6.3c0,0.1,0,0.2,0,0.4c-0.1,0.2-0.1,0.5-0.1,0.7c0,0.3-0.1,0.5-0.1,0.7
		c0,0.2-0.1,0.3-0.1,0.4c-0.2,0.2-0.4,0.3-0.6,0.4c-0.1,0-0.3,0-0.4-0.3c-0.1-0.1-0.2-0.2-0.3-0.3c-0.5-0.7-1.1-1.3-1.7-1.9
		S75,5.3,74.4,4.7c-0.1,0-0.2-0.1-0.2-0.2c-0.1-0.1-0.1-0.1-0.1-0.2s0-0.1,0.1-0.2c0.1,0,0.1,0,0.2,0c0.2,0,0.5,0,0.9,0
		c0.4,0.1,0.8,0.2,1.3,0.3c0.4,0.1,0.8,0.3,1.3,0.4c0.4,0.1,0.7,0.3,0.9,0.4c0.2,0.1,0.4,0.2,0.6,0.3C79.3,5.8,79.4,6,79.5,6.3z
		 M82.7,3.4c0,0.1,0,0.3,0,0.6c0,0.2,0,0.4,0,0.7c0,0.2,0,0.4,0,0.6c-0.1,0.2-0.1,0.3-0.1,0.4c-0.2,0.2-0.4,0.4-0.7,0.5
		c-0.1,0-0.3,0-0.4-0.2c-0.2-0.1-0.2-0.2-0.3-0.3c-0.7-0.6-1.3-1.1-1.9-1.7c-0.6-0.5-1.3-1-2-1.5c-0.1,0-0.2-0.1-0.2-0.2
		C77,2.2,77,2.2,77,2.1s0.1-0.2,0.2-0.2s0.3,0,0.3,0c0.2,0,0.5,0,0.9,0.1c0.4,0,0.8,0.1,1.2,0.2c0.4,0.1,0.8,0.2,1.3,0.2
		c0.3,0.1,0.7,0.2,0.9,0.2c0.3,0.1,0.5,0.2,0.7,0.3C82.5,2.9,82.6,3.2,82.7,3.4z"/>
	<path class="st0" d="M110.4,18c0,0.7-0.1,1.4-0.5,1.8c-0.4,0.6-0.8,1-1.3,1.4s-1.1,0.7-1.8,0.9c-0.7,0.2-1.3,0.3-1.9,0.3
		c-0.5,0-1-0.1-1.4-0.3c-0.4-0.1-0.9-0.4-1.3-0.7c-0.1-0.1-0.3-0.2-0.6-0.4c-0.2-0.1-0.4-0.3-0.7-0.6c-0.3-0.2-0.6-0.4-0.9-0.7
		c-0.3-0.2-0.5-0.4-0.6-0.7c-0.2-0.2-0.3-0.4-0.3-0.6c0-0.1,0-0.2,0.2-0.2c0,0,0.2,0.1,0.5,0.2s0.5,0.3,0.7,0.3
		c0.9,0.3,1.8,0.6,2.7,0.7c0.8,0.1,1.7,0.2,2.8,0.2c0.6,0,1.1-0.1,1.5-0.4s0.6-0.8,0.6-1.4c0-0.9-0.3-1.5-0.8-2
		c-0.5-0.5-1.2-0.7-2-0.7c-0.5,0-1.1,0.1-1.8,0.3c-0.7,0.2-1.5,0.5-2.2,0.8c-0.7,0.3-1.5,0.6-2.2,1c-0.7,0.3-1.3,0.6-1.7,0.9
		c0.1,0.2,0.3,0.7,0.7,1.4c0.3,0.7,0.7,1.6,1.2,2.6c0.4,0.9,0.9,2,1.3,3s0.8,1.9,1.1,2.6c0.4,1,0.7,1.5,0.7,1.7
		c0,0.1-0.1,0.3-0.2,0.5s-0.3,0.3-0.6,0.4c-0.2,0.1-0.4,0.2-0.6,0.3c-0.2,0.1-0.4,0.1-0.6,0.1c-0.1,0-0.3,0-0.3-0.1
		c-0.1,0-0.1,0-0.1-0.2c0-0.1,0-0.2-0.1-0.3c0-0.1,0-0.2,0-0.3c0-0.1,0-0.2,0-0.3c0-0.1,0-0.2-0.1-0.3c-0.5-1.7-1.1-3.4-1.8-5.1
		c-0.7-1.6-1.5-3.3-2.3-4.9c-0.8,0.4-1.6,0.8-2.3,1.3c-0.7,0.5-1.5,0.9-2.3,1.4c-0.1,0-0.2,0.1-0.3,0.1c-0.2,0-0.3,0-0.3,0
		c-0.1,0-0.4-0.1-0.7-0.4c-0.3-0.3-0.6-0.6-0.9-0.9c-0.3-0.4-0.5-0.7-0.5-0.9c0-0.2,0.1-0.3,0.3-0.4c0.1,0,0.3,0,0.4-0.1
		c0.3,0,0.7-0.1,1.2-0.3c0.5-0.1,1-0.3,1.6-0.6c0.5-0.2,1-0.4,1.6-0.7c0.5-0.2,0.9-0.4,1.2-0.6c-0.1-0.3-0.3-0.6-0.5-0.9
		c-0.1-0.3-0.4-0.7-0.6-1s-0.4-0.6-0.6-1c-0.2-0.3-0.4-0.6-0.7-0.8c-0.1-0.1-0.3-0.2-0.3-0.3c-0.1,0-0.1-0.1-0.1-0.2
		c-0.1,0-0.1-0.1-0.1-0.2c0-0.1,0-0.2,0.1-0.3s0.2-0.1,0.4-0.3c0.1-0.1,0.3-0.1,0.6-0.3c0.2-0.1,0.4-0.1,0.6-0.1s0.4-0.1,0.6-0.1
		c0.1,0,0.3,0,0.4,0s0.1,0,0.3,0c0.1,0,0.1,0.1,0.3,0.1c0.1,0,0.1,0.2,0.1,0.4s0,0.3,0.1,0.4c0.1,0.7,0.2,1.3,0.5,1.9
		c0.2,0.6,0.5,1.2,0.8,1.8c0.6-0.2,1.3-0.5,2-0.9c0.7-0.3,1.4-0.6,2.2-0.8c0.7-0.2,1.5-0.4,2.3-0.6c0.7-0.1,1.4-0.2,2.2-0.3
		c0.6,0,1.3,0.1,1.9,0.2c0.6,0.1,1.1,0.4,1.6,0.8c0.4,0.3,0.8,0.7,1.1,1.3C110.3,16.6,110.4,17.3,110.4,18z M103.1,11.9
		c0,0.5-0.1,1-0.3,1.3c-0.2,0.3-0.6,0.4-1.2,0.4c-0.9,0-1.7-0.1-2.6-0.6c-0.1,0-0.3-0.1-0.5-0.3c-0.2-0.1-0.4-0.3-0.7-0.4
		c-0.2-0.1-0.4-0.3-0.6-0.4c-0.1-0.1-0.3-0.3-0.3-0.4c0,0,0-0.1,0.1-0.1s0.1,0,0.2,0c0.2,0,0.5,0,0.8,0.1c0.3,0,0.6,0.1,0.9,0.1
		s0.7,0,1.2-0.1c0.4,0,0.8-0.2,1.1-0.6c0-0.1,0-0.2,0.1-0.4c0.1-0.1,0.1-0.3,0.2-0.4s0.1-0.3,0.3-0.4c0.1-0.1,0.1-0.2,0.3-0.2
		c0.1,0,0.2,0.1,0.4,0.2c0.1,0.1,0.2,0.4,0.3,0.6c0.1,0.3,0.1,0.6,0.3,0.9C103.1,11.5,103.1,11.7,103.1,11.9z"/>
	<path class="st0" d="M144.2,13.5c0,0.2,0,0.4,0,0.9s0,0.7-0.1,0.8s-0.3,0.1-0.5,0.2c-0.2,0-0.4,0-0.5,0c-1.3,0.1-2.7,0.1-4,0.2
		c-1.3,0-2.6,0.1-4,0.1c-2.1,0-4.3,0-6.3,0.1c-2.1,0.1-4.2,0.1-6.3,0.1c-0.4,0-0.7,0-1,0.1c-0.4,0-0.7,0.1-1,0.1s-0.5,0-0.6-0.1
		c-0.1-0.1-0.1-0.2-0.2-0.5s-0.1-0.6-0.1-0.9s0-0.6,0-0.9c0-0.1,0-0.3,0-0.5c0-0.1,0-0.3,0-0.5c0-0.1,0.1-0.2,0.3-0.2
		c0.2,0,0.5,0,1,0.1c0.4,0.1,0.8,0.1,1.2,0.2c1.2,0.1,2.5,0.1,3.7,0.1s2.4,0,3.7,0c0.5,0,1.1,0,1.7,0c0.6,0,1.2,0,1.8,0
		c0.8,0,1.6,0,2.6-0.1c0.9,0,1.7,0,2.7-0.1c0.9,0,1.8,0,2.7-0.1c0.8-0.1,1.7-0.1,2.6-0.3c0.1,0,0.2,0,0.4,0c0.1,0,0.1,0.1,0.2,0.1
		c0,0.1,0,0.2,0.1,0.3c0,0.1,0,0.3,0,0.4C144.2,13.4,144.2,13.5,144.2,13.5z"/>
	<path class="st0" d="M182,25.3c-0.1,0.3-0.2,0.6-0.3,0.9c-0.2,0.2-0.3,0.5-0.4,0.9c-0.7,1.2-1.4,2.4-2.4,3.6s-2,2.2-3.1,3.1
		c-1.1,0.8-2.4,1.5-3.8,1.9c-1.3,0.4-2.8,0.4-4.3,0.1c-1.5-0.4-2.7-1.1-3.3-2.2c-0.7-1-1.2-2.2-1.4-3.5c-0.3-1.3-0.4-2.6-0.3-4.1
		c0-1.4-0.1-2.7-0.2-3.9c-0.1-0.2-0.1-0.4-0.1-0.6c-0.1-0.2-0.2-0.3-0.4-0.3c-0.1,0-0.3,0-0.5,0s-0.4,0.1-0.4,0.2
		c-1.1,0.6-2.1,1.1-2.9,1.7c-0.9,0.6-1.8,1.2-2.9,2.1c-1.1,1-2.4,2-3.4,3.1c-1.1,1-2.2,2.2-3.1,3.6c-0.1,0.1-0.2,0.2-0.3,0.4
		s-0.3,0.2-0.5,0.2c-0.3-0.1-0.6-0.2-0.8-0.6c-0.3-0.3-0.6-0.6-0.8-1s-0.4-0.8-0.5-1.2c-0.1-0.4-0.2-0.6-0.1-0.9
		c0.1-0.2,0.2-0.4,0.3-0.6s0.3-0.3,0.4-0.5c1.9-2,3.8-4,5.6-6.1s3.6-4.2,5.5-6.3c1.1-1.3,2.2-2.6,3.4-3.9c1.1-1.3,2.2-2.6,3.4-3.9
		c0.6-0.7,1.2-1.4,1.8-2.2c0.6-0.7,1.1-1.5,1.8-2.3c0,0,0-0.1,0.2-0.3c0-0.1,0.1-0.3,0.2-0.4c0-0.1,0.1-0.3,0.3-0.4
		c0.1-0.1,0.2-0.1,0.3-0.1c0.2,0,0.4,0.2,0.8,0.4c0.4,0.2,0.8,0.5,1.3,0.9c0.4,0.3,0.7,0.6,1,0.8c0.2,0.1,0.3,0.2,0.6,0.4
		c0.2,0.2,0.3,0.4,0.3,0.7c0,0.2-0.2,0.4-0.4,0.6c-0.2,0.1-0.4,0.2-0.6,0.4c-0.8,0.6-1.6,1.2-2.4,1.8c-0.8,0.7-1.6,1.3-2.3,2
		c-1.4,1.3-2.9,2.7-4.1,4.1c-1.3,1.4-2.6,2.9-3.9,4.3c-0.2,0.2-0.5,0.5-0.9,0.9s-0.8,0.8-1.1,1.2c-0.4,0.4-0.8,0.9-1.2,1.3
		s-0.8,0.8-1.1,1.2c0.9-0.5,1.8-1.1,2.8-1.6c0.8-0.5,1.6-0.9,2.3-1.2c0.6-0.3,1.3-0.6,1.9-0.8c0.5-0.1,0.9-0.2,1.2-0.1
		c0.1,0,0.3,0.2,0.6,0.3c0.2,0.2,0.5,0.4,0.8,0.6c0.2,0.2,0.5,0.5,0.8,0.8c0.2,0.2,0.4,0.4,0.6,0.6c0.1,0.2,0.3,0.4,0.5,0.7
		c0.1,0.3,0.2,0.5,0.2,0.9c-0.1,0.2-0.2,0.5-0.2,0.8c-0.1,0.3-0.2,0.5-0.2,0.8c-0.2,0.7-0.3,1.5-0.4,2.2c-0.1,0.7-0.1,1.5-0.1,2.3
		c0,0.5,0.1,1,0.2,1.3c0.1,0.3,0.3,0.6,0.6,0.9c0.2,0.2,0.5,0.4,0.9,0.5s0.7,0.3,1.3,0.4c1,0.3,2.1,0.2,3.3-0.1
		c1.1-0.3,2.2-0.9,3.4-1.5c1.1-0.7,2.1-1.4,3-2.2c1-0.8,1.8-1.5,2.6-2.3c0,0,0.1-0.2,0.3-0.4c0.1-0.2,0.2-0.2,0.3-0.2
		C181.9,25.1,181.9,25.2,182,25.3z"/>
	<path class="st0" d="M187,1.4l3.7,2.7l-11.9,13.6l-1.1-0.8L187,1.4z M173.8,19.5c-0.4,0.5-0.5,1.1-0.4,1.7s0.4,1.1,0.9,1.4
		s1,0.5,1.7,0.4c0.6-0.1,1.1-0.4,1.5-0.9c0.3-0.5,0.5-1.1,0.4-1.7s-0.4-1.1-0.9-1.4c-0.5-0.4-1.1-0.5-1.7-0.4
		C174.7,18.7,174.2,19.1,173.8,19.5z"/>
	<g>
		<path class="st0" d="M121.3,4.3c0-0.3,0-0.5-0.1-0.6c0-0.1-0.2-0.2-0.3-0.3V3.2l1.1-0.3v3.5c0,0.6-0.1,1.1-0.3,1.4
			c-0.2,0.3-0.5,0.5-0.9,0.5c-0.3,0-0.6,0-0.8-0.1V7.4h0.2l0.6,0.5c0.1,0,0.1,0.1,0.2,0.1s0.2-0.1,0.3-0.3c0.1-0.2,0.1-0.5,0.1-0.8
			L121.3,4.3L121.3,4.3z M121.2,1.7c0-0.1,0-0.2,0.1-0.3c0.1-0.1,0.2-0.1,0.3-0.1c0.1,0,0.3,0,0.3,0.1c0.1,0.1,0.1,0.2,0.1,0.3
			c0,0.1,0,0.2-0.1,0.3c-0.1,0.1-0.2,0.1-0.3,0.1c-0.1,0-0.2,0-0.3-0.1C121.2,1.9,121.2,1.8,121.2,1.7z"/>
		<path class="st0" d="M124.8,6.8c-0.1,0-0.3,0-0.5,0c-0.5,0-0.8-0.2-1.1-0.6C123.1,5.9,123,5.5,123,5c0-0.6,0.2-1.1,0.5-1.5
			s0.7-0.6,1.2-0.6c0.3,0,0.6,0.1,0.8,0.3l0.2-0.2h0.9v0.2c-0.2,0.2-0.4,0.5-0.4,1v1.5c0,0.2,0,0.4,0,0.4c0,0.2,0.2,0.3,0.3,0.4v0.2
			h-0.9c-0.1-0.1-0.2-0.2-0.2-0.3L124.8,6.8z M124,5.9c0.2,0.3,0.6,0.4,1.1,0.4c0,0,0.2,0,0.4,0V3.5c-0.2-0.1-0.4-0.2-0.6-0.2
			c-0.4,0-0.7,0.2-0.9,0.4c-0.2,0.3-0.3,0.7-0.3,1.1C123.7,5.3,123.8,5.6,124,5.9z"/>
		<path class="st0" d="M128.1,4.3c0-0.3,0-0.5-0.1-0.6c0-0.1-0.2-0.2-0.3-0.3V3.2l1.1-0.3v3.5c0,0.6-0.1,1.1-0.3,1.4
			c-0.2,0.3-0.5,0.5-0.9,0.5c-0.3,0-0.6,0-0.8-0.1V7.4h0.2l0.6,0.5c0.1,0,0.1,0.1,0.2,0.1s0.2-0.1,0.3-0.3c0.1-0.2,0.1-0.5,0.1-0.8
			L128.1,4.3L128.1,4.3z M128,1.7c0-0.1,0-0.2,0.1-0.3c0.1-0.1,0.2-0.1,0.3-0.1s0.3,0,0.3,0.1c0.1,0.1,0.1,0.2,0.1,0.3
			c0,0.1,0,0.2-0.1,0.3c-0.1,0.1-0.2,0.1-0.3,0.1s-0.2,0-0.3-0.1C128,1.9,128,1.8,128,1.7z"/>
		<path class="st0" d="M131.6,6.8c-0.1,0-0.3,0-0.5,0c-0.5,0-0.8-0.2-1.1-0.6c-0.2-0.3-0.3-0.7-0.3-1.2c0-0.6,0.2-1.1,0.5-1.5
			s0.7-0.6,1.2-0.6c0.3,0,0.6,0.1,0.8,0.3l0.2-0.2h0.9v0.2c-0.2,0.2-0.4,0.5-0.4,1v1.5c0,0.2,0,0.4,0,0.4c0,0.2,0.2,0.3,0.3,0.4v0.2
			h-0.9c-0.1-0.1-0.2-0.2-0.2-0.3L131.6,6.8z M130.8,5.9c0.2,0.3,0.6,0.4,1.1,0.4c0,0,0.2,0,0.4,0V3.5c-0.2-0.1-0.4-0.2-0.6-0.2
			c-0.4,0-0.7,0.2-0.9,0.4c-0.2,0.3-0.3,0.7-0.3,1.1C130.5,5.3,130.6,5.6,130.8,5.9z"/>
		<path class="st0" d="M137.2,3.8v0.6h-3.1V3.8H137.2z"/>
		<path class="st0" d="M140.6,4.5c0-0.3,0-0.6-0.1-0.7c-0.1-0.2-0.3-0.4-0.6-0.4c-0.1,0-0.3,0-0.4,0.1c-0.2,0.1-0.3,0.1-0.4,0.2v2
			c0,0.2,0,0.4,0.1,0.6c0,0.1,0.2,0.2,0.3,0.3v0.2H138V6.6c0.2-0.1,0.3-0.2,0.3-0.3c0-0.1,0.1-0.3,0.1-0.6V4.3c0-0.3,0-0.5-0.1-0.6
			c0-0.1-0.1-0.2-0.3-0.3V3.2l1.1-0.3v0.6l0.8-0.5c0.2,0,0.4-0.1,0.6-0.1c0.6,0,1,0.5,1,1.4v1.4c0,0.2,0,0.4,0.1,0.6
			c0,0.1,0.1,0.2,0.3,0.3v0.2h-1.5V6.6c0.2-0.1,0.3-0.2,0.3-0.3c0-0.1,0.1-0.3,0.1-0.6V4.5H140.6z"/>
		<path class="st0" d="M142.5,1.5h1l-0.4,3.9h-0.3L142.5,1.5z M142.5,6.3c0,0.1,0,0.2,0.1,0.3c0.1,0.1,0.2,0.1,0.3,0.1
			s0.2,0,0.3-0.1s0.1-0.2,0.1-0.3c0-0.1,0-0.2-0.1-0.3c-0.1-0.1-0.2-0.1-0.3-0.1s-0.2,0-0.3,0.1S142.5,6.2,142.5,6.3z"/>
	</g>
</g>
</svg>
