<?xml version="1.0" encoding="utf-8"?>
<!-- Generator: Adobe Illustrator 26.2.1, SVG Export Plug-In . SVG Version: 6.00 Build 0)  -->
<svg version="1.1" id="レイヤー_1" xmlns="http://www.w3.org/2000/svg" xmlns:xlink="http://www.w3.org/1999/xlink" x="0px"
	 y="0px" viewBox="0 0 10.1 13.7" style="enable-background:new 0 0 10.1 13.7;" xml:space="preserve">
<style type="text/css">
	.st0{fill:#FFFFFF;stroke:#231815;stroke-width:0.2154;stroke-miterlimit:10;}
	.st1{fill:#128341;stroke:#128341;stroke-width:0.2415;stroke-linecap:round;stroke-miterlimit:10;}
	.st2{fill:#128341;}
	.st3{fill:#FFFFFF;}
	.st4{fill:#F5E929;}
	.st5{fill:none;stroke:#CA103D;stroke-width:0.2415;stroke-linecap:round;stroke-miterlimit:10;}
	.st6{fill:none;stroke:#FFFFFF;stroke-width:0.4829;stroke-miterlimit:10;}
	.st7{fill:none;stroke:#231815;stroke-width:0.2415;stroke-miterlimit:10;}
	.st8{fill:#231815;}
	.st9{fill:none;stroke:#231815;stroke-width:0.2154;stroke-miterlimit:10;}
</style>
<g>
	<path class="st0" d="M3.4,11.4c0,0-2.4-0.5-2.7-0.6c-0.3-0.1,0.1-2.1,2.9-1.7c0,0,1.1-0.8,2.3-0.7c1.1,0.1,1.4,0.8,1.4,0.8
		s0.9-0.4,1.5,0c0.7,0.5,1.6,1.5,1.2,1.7c-0.3,0.3-3.4-0.1-4,0.4C5.2,11.8,3.4,11.4,3.4,11.4z"/>
	<g>
		<line class="st1" x1="4.9" y1="0.1" x2="4.9" y2="3.2"/>
		<line class="st1" x1="3.8" y1="0.3" x2="4.6" y2="3.3"/>
		<line class="st1" x1="2.8" y1="0.8" x2="4.3" y2="3.4"/>
		<line class="st1" x1="1.9" y1="1.5" x2="4.1" y2="3.7"/>
		<line class="st1" x1="1.3" y1="2.4" x2="3.9" y2="3.9"/>
		<line class="st1" x1="0.9" y1="3.5" x2="3.9" y2="4.3"/>
		<line class="st1" x1="0.8" y1="4.6" x2="3.9" y2="4.6"/>
		<line class="st1" x1="1" y1="5.7" x2="4" y2="4.9"/>
		<line class="st1" x1="1.5" y1="6.7" x2="4.1" y2="5.1"/>
		<line class="st1" x1="9.2" y1="5.3" x2="6.3" y2="4.5"/>
		<line class="st1" x1="9.3" y1="4.2" x2="6.3" y2="4.2"/>
		<line class="st1" x1="9.1" y1="3.1" x2="6.2" y2="3.9"/>
		<line class="st1" x1="8.7" y1="2.1" x2="6" y2="3.6"/>
		<line class="st1" x1="7.9" y1="1.2" x2="5.8" y2="3.4"/>
		<line class="st1" x1="7" y1="0.6" x2="5.5" y2="3.2"/>
		<line class="st1" x1="6" y1="0.2" x2="5.2" y2="3.2"/>
	</g>
	<g>
		<path class="st2" d="M8.6,3.6c0-0.7-0.6-1.3-1.3-1.3c-0.1,0-0.1,0-0.2,0c0-0.1,0-0.1,0-0.2c0-0.7-0.6-1.3-1.3-1.3
			c-0.5,0-1,0.3-1.2,0.8C4.5,1.5,4.3,1.5,4.1,1.5C3.4,1.5,2.8,2,2.8,2.8c0,0.1,0,0.2,0,0.3c-0.6,0.1-1,0.7-1,1.3
			c0,0.3,0.1,0.6,0.3,0.8C1.9,5.3,1.8,5.6,1.8,5.9c0,0.7,0.6,1.3,1.3,1.3c0.1,0,0.2,0,0.2,0c0.1,0.3,0.5,0.6,0.9,0.6
			c0.4,0,0.7-0.2,0.9-0.6c0.2,0.3,0.6,0.6,1.1,0.6c0.6,0,1-0.3,1.2-0.8c0.7,0,1.3-0.6,1.3-1.3c0-0.4-0.2-0.8-0.5-1
			C8.5,4.4,8.6,4,8.6,3.6z"/>
		<g>
			<circle class="st3" cx="5.9" cy="2.3" r="0.6"/>
			<circle class="st2" cx="5.9" cy="2.3" r="0.2"/>
		</g>
		<g>
			<circle class="st3" cx="4" cy="2.7" r="0.6"/>
			<circle class="st2" cx="4" cy="2.7" r="0.2"/>
		</g>
		<g>
			<circle class="st3" cx="3" cy="4.1" r="0.6"/>
			<circle class="st2" cx="3" cy="4.1" r="0.2"/>
		</g>
		<g>
			<circle class="st3" cx="5.1" cy="4.4" r="0.6"/>
			<circle class="st2" cx="5.1" cy="4.4" r="0.2"/>
		</g>
		<g>
			<circle class="st3" cx="7.1" cy="3.8" r="0.6"/>
			<circle class="st2" cx="7.1" cy="3.8" r="0.2"/>
		</g>
		<g>
			<circle class="st3" cx="7.4" cy="5.6" r="0.6"/>
			<circle class="st2" cx="7.4" cy="5.6" r="0.2"/>
		</g>
		<g>
			<circle class="st3" cx="5.9" cy="6.3" r="0.6"/>
			<circle class="st2" cx="5.9" cy="6.3" r="0.2"/>
		</g>
		<g>
			<circle class="st3" cx="4.2" cy="6.5" r="0.6"/>
			<circle class="st2" cx="4.2" cy="6.5" r="0.2"/>
		</g>
		<g>
			<circle class="st3" cx="2.8" cy="5.8" r="0.6"/>
			<circle class="st2" cx="2.8" cy="5.8" r="0.2"/>
		</g>
	</g>
	<g>
		<path class="st4" d="M3.6,8.3L2.1,8.1c0,0,0.9,0.6,1.5,0.8C4.1,9,3.6,8.3,3.6,8.3z"/>
		<g>
			<polyline class="st5" points="4.6,10.7 4.6,13 4,13.5 			"/>
			<polyline class="st5" points="5.1,13.6 4.6,13 4.5,13.6 			"/>
		</g>
		<g>
			<polyline class="st5" points="6.4,10.7 6.4,13 5.8,13.5 			"/>
			<polyline class="st5" points="6.9,13.6 6.4,13 6.3,13.6 			"/>
		</g>
		<g>
			<path class="st6" d="M4.2,11c0.2,0.7,0.9,1.1,1.6,1c0.7-0.1,1.3-0.7,1.3-1.4c0-0.1,0-0.3,0-0.4C6.9,9.9,6.5,9.7,6.2,9.8
				c-0.4,0-0.7,0.2-1,0.3c-0.1,0-0.2,0.1-0.4,0C4.5,10,4.6,9.6,4.6,9.3c0-0.4-0.1-0.9-0.5-1c-0.2-0.1-0.7,0-0.8,0.2
				c-0.1,0.3,0.5,0.7,0.6,1C4.1,9.9,4,10.5,4.2,11z"/>
			<path class="st3" d="M4.2,11c0.2,0.7,0.9,1.1,1.6,1c0.7-0.1,1.3-0.7,1.3-1.4c0-0.1,0-0.3,0-0.4C6.9,9.9,6.5,9.7,6.2,9.8
				c-0.4,0-0.7,0.2-1,0.3c-0.1,0-0.2,0.1-0.4,0C4.5,10,4.6,9.6,4.6,9.3c0-0.4-0.1-0.9-0.5-1c-0.2-0.1-0.7,0-0.8,0.2
				c-0.1,0.3,0.5,0.7,0.6,1C4.1,9.9,4,10.5,4.2,11z"/>
			<path class="st7" d="M4.2,11c0.2,0.7,0.9,1.1,1.6,1c0.7-0.1,1.3-0.7,1.3-1.4c0-0.1,0-0.3,0-0.4C6.9,9.9,6.5,9.7,6.2,9.8
				c-0.4,0-0.7,0.2-1,0.3c-0.1,0-0.2,0.1-0.4,0C4.5,10,4.6,9.6,4.6,9.3c0-0.4-0.1-0.9-0.5-1c-0.2-0.1-0.7,0-0.8,0.2
				c-0.1,0.3,0.5,0.7,0.6,1C4.1,9.9,4,10.5,4.2,11z"/>
		</g>
		<circle class="st8" cx="4" cy="8.7" r="0.2"/>
	</g>
	<path class="st8" d="M6.7,8.2c0,0,2.1-1.6,2.7-1.2c0.2,0.1,0.1,0.3,0,0.3C9.3,7.3,8.2,7.6,6.7,8.2z"/>
	<path class="st8" d="M6.6,8.6c0,0,2.5-0.9,2.9-0.4c0.1,0.1,0,0.3-0.1,0.3C9.3,8.4,8.2,8.4,6.6,8.6z"/>
	<g>
		<path class="st8" d="M2.5,7.8c0,0-1.8-1.4-2.3-1.1C0,6.8,0,6.9,0.2,7C0.3,7,1.2,7.2,2.5,7.8z"/>
		<path class="st8" d="M2.6,8.6c0,0-2.1-0.8-2.5-0.4c-0.1,0.1,0,0.2,0.1,0.2S1.2,8.5,2.6,8.6z"/>
	</g>
	<path class="st0" d="M7.1,9.3c0,0-0.8,0.3-1.2,0.5"/>
	<path class="st0" d="M7.8,9.1c0,0,1.3,1.1,1.7,2"/>
	<path class="st0" d="M7.3,9.3c0,0,1.2,1.2,1.5,1.9"/>
	<path class="st0" d="M8.8,9.4c0,0-1,0-1.5,0.3"/>
	<path class="st0" d="M9.3,9.8c0,0-1,0-1.6,0.4"/>
	<path class="st0" d="M9.7,10.3c0,0-1.3,0.1-1.9,0.3"/>
	<path class="st0" d="M6.5,8.6c0,0-0.6,0.6-0.8,1.3"/>
	<path class="st0" d="M5.6,8.4c0,0-0.4,1-0.3,1.5"/>
	<path class="st9" d="M5.1,9c0,0,0.8-0.2,1.5,0.5"/>
	<path class="st9" d="M5.3,9.4c0,0,0.5-0.1,0.9,0.2"/>
	<path class="st9" d="M2.8,9.1c0,0-1.3,0.9-1.5,1.9"/>
	<path class="st9" d="M3.2,9.1c0,0-0.9,1.3-0.7,2.2"/>
	<path class="st9" d="M1.7,9.2c0,0,1.3,0.1,1.9,0.5"/>
	<path class="st9" d="M1,9.6c0,0,1.7,0.1,2.7,0.7"/>
	<path class="st9" d="M0.6,10.1c0,0,1.9,0.1,3,0.8"/>
</g>
</svg>
