<?xml version="1.0" encoding="utf-8"?>
<!-- Generator: Adobe Illustrator 26.2.1, SVG Export Plug-In . SVG Version: 6.00 Build 0)  -->
<svg version="1.1" id="レイヤー_1" xmlns="http://www.w3.org/2000/svg" xmlns:xlink="http://www.w3.org/1999/xlink" x="0px"
	 y="0px" viewBox="0 0 15.4 19.4" style="enable-background:new 0 0 15.4 19.4;" xml:space="preserve">
<style type="text/css">
	.st0{fill:#DCDDDD;}
	.st1{fill:#BEDFC2;}
	.st2{fill:#FFFFFF;}
	.st3{fill:none;stroke:#231815;stroke-width:0.3;stroke-miterlimit:10;}
	.st4{fill:#FFFFFF;stroke:#231815;stroke-width:0.2154;stroke-miterlimit:10;}
	.st5{fill:#008842;stroke:#008842;stroke-width:0.2415;stroke-linecap:round;stroke-miterlimit:10;}
	.st6{fill:#008842;}
	.st7{fill:#FFF100;}
	.st8{fill:none;stroke:#D7003F;stroke-width:0.2415;stroke-linecap:round;stroke-miterlimit:10;}
	.st9{fill:none;stroke:#FFFFFF;stroke-width:0.4829;stroke-miterlimit:10;}
	.st10{fill:none;stroke:#231815;stroke-width:0.2415;stroke-miterlimit:10;}
	.st11{fill:#231815;}
	.st12{fill:none;stroke:#231815;stroke-width:0.2154;stroke-miterlimit:10;}
	.st13{fill:#003F75;}
	.st14{fill:#003F75;stroke:#FFFFFF;stroke-width:0.1566;stroke-miterlimit:10;}
	.st15{fill:none;stroke:#003F75;stroke-width:0.1566;stroke-miterlimit:10;}
	.st16{fill:none;stroke:#FFFFFF;stroke-width:0.1176;stroke-miterlimit:10;}
	.st17{fill:#D7000F;}
	.st18{fill:none;stroke:#003F75;stroke-width:0.392;stroke-miterlimit:10;}
	.st19{fill:none;stroke:#D7000F;stroke-width:6.553739e-02;stroke-miterlimit:10;}
	.st20{fill:none;stroke:#D7000F;stroke-width:6.553739e-02;stroke-linecap:round;stroke-miterlimit:10;}
	.st21{fill:none;stroke:#FFFFFF;stroke-width:5.004481e-02;stroke-miterlimit:10;}
	.st22{fill:none;stroke:#FFFFFF;stroke-width:0.2666;stroke-miterlimit:10;}
	.st23{fill:none;stroke:#008842;stroke-width:0.2591;stroke-miterlimit:10;}
	.st24{fill:none;stroke:#008842;stroke-width:0.2543;stroke-miterlimit:10;}
	.st25{fill:#003D56;}
	.st26{fill:#009B63;}
	.st27{fill:none;stroke:#008842;stroke-width:0.2974;stroke-miterlimit:10;}
	.st28{fill:none;stroke:#008842;stroke-width:0.3059;stroke-miterlimit:10;}
	.st29{fill:none;stroke:#008842;stroke-width:0.2866;stroke-miterlimit:10;}
	.st30{fill:none;stroke:#D7000F;stroke-width:0.2866;stroke-miterlimit:10;}
	.st31{fill:none;stroke:#008842;stroke-width:0.2637;stroke-miterlimit:10;}
	.st32{fill:none;stroke:#008842;stroke-width:0.2046;stroke-miterlimit:10;}
	.st33{fill:none;stroke:#D7000F;stroke-width:0.2046;stroke-miterlimit:10;}
	.st34{fill:#FFFFFF;stroke:#008842;stroke-width:0.2924;stroke-miterlimit:10;}
	.st35{fill:#FFFFFF;stroke:#008842;stroke-width:0.2246;stroke-miterlimit:10;}
	.st36{fill:none;stroke:#008842;stroke-width:0.2111;stroke-miterlimit:10;}
	.st37{fill:#FFFFFF;stroke:#D7000F;stroke-width:0.2111;stroke-miterlimit:10;}
	.st38{fill:#003F75;stroke:#FFFFFF;stroke-width:0.3251;stroke-miterlimit:10;}
	.st39{fill:#003F75;stroke:#FFFFFF;stroke-width:8.671898e-02;stroke-linecap:round;stroke-miterlimit:10;}
	.st40{fill:#003F75;stroke:#FFFFFF;stroke-width:8.671873e-02;stroke-linecap:round;stroke-miterlimit:10;}
	.st41{fill:#003F75;stroke:#FFFFFF;stroke-width:8.671905e-02;stroke-linecap:round;stroke-miterlimit:10;}
	.st42{fill:#003F75;stroke:#FFFFFF;stroke-width:8.671889e-02;stroke-linecap:round;stroke-miterlimit:10;}
	.st43{fill:#003F75;stroke:#FFFFFF;stroke-width:5.945974e-02;stroke-miterlimit:10;}
	.st44{fill:none;stroke:#FFFFFF;stroke-width:0.2;stroke-linecap:round;stroke-miterlimit:10;}
	.st45{fill:#003F75;stroke:#FFFFFF;stroke-width:8.671895e-02;stroke-linecap:round;stroke-miterlimit:10;}
	.st46{fill:#003F75;stroke:#FFFFFF;stroke-width:8.671882e-02;stroke-linecap:round;stroke-miterlimit:10;}
	.st47{fill:#003F75;stroke:#FFFFFF;stroke-width:8.671913e-02;stroke-linecap:round;stroke-miterlimit:10;}
	.st48{fill:#003F75;stroke:#FFFFFF;stroke-width:0.1655;stroke-miterlimit:10;}
	.st49{fill:#003F75;stroke:#FFFFFF;stroke-width:4.414143e-02;stroke-linecap:round;stroke-miterlimit:10;}
	.st50{fill:#003F75;stroke:#FFFFFF;stroke-width:4.414129e-02;stroke-linecap:round;stroke-miterlimit:10;}
	.st51{fill:#003F75;stroke:#FFFFFF;stroke-width:4.414124e-02;stroke-linecap:round;stroke-miterlimit:10;}
	.st52{fill:#003F75;stroke:#FFFFFF;stroke-width:4.414135e-02;stroke-linecap:round;stroke-miterlimit:10;}
	.st53{fill:#003F75;stroke:#FFFFFF;stroke-width:3.026611e-02;stroke-miterlimit:10;}
	.st54{fill:none;stroke:#FFFFFF;stroke-width:0.1427;stroke-linecap:round;stroke-miterlimit:10;}
	.st55{fill:#003F75;stroke:#FFFFFF;stroke-width:4.414134e-02;stroke-linecap:round;stroke-miterlimit:10;}
	.st56{fill:#003F75;stroke:#FFFFFF;stroke-width:4.414142e-02;stroke-linecap:round;stroke-miterlimit:10;}
	.st57{fill:#D7000F;stroke:#FFFFFF;stroke-width:0.1655;stroke-miterlimit:10;}
	.st58{fill:#D7000F;stroke:#FFFFFF;stroke-width:4.414167e-02;stroke-linecap:round;stroke-miterlimit:10;}
	.st59{fill:#D7000F;stroke:#FFFFFF;stroke-width:4.414130e-02;stroke-linecap:round;stroke-miterlimit:10;}
	.st60{fill:#D7000F;stroke:#FFFFFF;stroke-width:4.414126e-02;stroke-linecap:round;stroke-miterlimit:10;}
	.st61{fill:#D7000F;stroke:#FFFFFF;stroke-width:4.414124e-02;stroke-linecap:round;stroke-miterlimit:10;}
	.st62{fill:#D7000F;stroke:#FFFFFF;stroke-width:3.026575e-02;stroke-miterlimit:10;}
	.st63{fill:#003F75;stroke:#FFFFFF;stroke-width:0.1356;stroke-miterlimit:10;}
	.st64{fill:#003F75;stroke:#FFFFFF;stroke-width:3.617875e-02;stroke-linecap:round;stroke-miterlimit:10;}
	.st65{fill:#003F75;stroke:#FFFFFF;stroke-width:3.617861e-02;stroke-linecap:round;stroke-miterlimit:10;}
	.st66{fill:#003F75;stroke:#FFFFFF;stroke-width:3.617895e-02;stroke-linecap:round;stroke-miterlimit:10;}
	.st67{fill:#003F75;stroke:#FFFFFF;stroke-width:3.617888e-02;stroke-linecap:round;stroke-miterlimit:10;}
	.st68{fill:#003F75;stroke:#FFFFFF;stroke-width:3.617904e-02;stroke-linecap:round;stroke-miterlimit:10;}
	.st69{fill:#003F75;stroke:#FFFFFF;stroke-width:3.617909e-02;stroke-linecap:round;stroke-miterlimit:10;}
	.st70{fill:#003F75;stroke:#FFFFFF;stroke-width:2.480653e-02;stroke-miterlimit:10;}
	.st71{fill:none;stroke:#FFFFFF;stroke-width:0.1292;stroke-linecap:round;stroke-miterlimit:10;}
	.st72{fill:#003F75;stroke:#FFFFFF;stroke-width:3.617922e-02;stroke-linecap:round;stroke-miterlimit:10;}
	.st73{fill:#003F75;stroke:#FFFFFF;stroke-width:3.617914e-02;stroke-linecap:round;stroke-miterlimit:10;}
	.st74{fill:#003F75;stroke:#FFFFFF;stroke-width:3.617876e-02;stroke-linecap:round;stroke-miterlimit:10;}
	.st75{fill:#003F75;stroke:#FFFFFF;stroke-width:3.617887e-02;stroke-linecap:round;stroke-miterlimit:10;}
	.st76{fill:#003F75;stroke:#FFFFFF;stroke-width:3.617899e-02;stroke-linecap:round;stroke-miterlimit:10;}
	.st77{fill:#003F75;stroke:#FFFFFF;stroke-width:2.480647e-02;stroke-miterlimit:10;}
	.st78{fill:#003F75;stroke:#FFFFFF;stroke-width:3.617936e-02;stroke-linecap:round;stroke-miterlimit:10;}
	.st79{fill:#003F75;stroke:#FFFFFF;stroke-width:3.617871e-02;stroke-linecap:round;stroke-miterlimit:10;}
	.st80{fill:#003F75;stroke:#FFFFFF;stroke-width:3.617907e-02;stroke-linecap:round;stroke-miterlimit:10;}
	.st81{fill:#003F75;stroke:#FFFFFF;stroke-width:3.617896e-02;stroke-linecap:round;stroke-miterlimit:10;}
	.st82{fill:#003F75;stroke:#FFFFFF;stroke-width:3.617892e-02;stroke-linecap:round;stroke-miterlimit:10;}
	.st83{fill:#D7000F;stroke:#FFFFFF;stroke-width:0.1356;stroke-miterlimit:10;}
	.st84{fill:#D7000F;stroke:#FFFFFF;stroke-width:3.617906e-02;stroke-linecap:round;stroke-miterlimit:10;}
	.st85{fill:#D7000F;stroke:#FFFFFF;stroke-width:3.617919e-02;stroke-linecap:round;stroke-miterlimit:10;}
	.st86{fill:#D7000F;stroke:#FFFFFF;stroke-width:3.617891e-02;stroke-linecap:round;stroke-miterlimit:10;}
	.st87{fill:#D7000F;stroke:#FFFFFF;stroke-width:3.617887e-02;stroke-linecap:round;stroke-miterlimit:10;}
	.st88{fill:#D7000F;stroke:#FFFFFF;stroke-width:3.617904e-02;stroke-linecap:round;stroke-miterlimit:10;}
	.st89{fill:#D7000F;stroke:#FFFFFF;stroke-width:3.617874e-02;stroke-linecap:round;stroke-miterlimit:10;}
	.st90{fill:#D7000F;stroke:#FFFFFF;stroke-width:2.480653e-02;stroke-miterlimit:10;}
	.st91{fill:#D7000F;stroke:#FFFFFF;stroke-width:3.617884e-02;stroke-linecap:round;stroke-miterlimit:10;}
	.st92{fill:#D7000F;stroke:#FFFFFF;stroke-width:3.617922e-02;stroke-linecap:round;stroke-miterlimit:10;}
	.st93{fill:#D7000F;stroke:#FFFFFF;stroke-width:3.617914e-02;stroke-linecap:round;stroke-miterlimit:10;}
	.st94{fill:#D7000F;stroke:#FFFFFF;stroke-width:3.617876e-02;stroke-linecap:round;stroke-miterlimit:10;}
	.st95{fill:#D7000F;stroke:#FFFFFF;stroke-width:3.617899e-02;stroke-linecap:round;stroke-miterlimit:10;}
	.st96{fill:#D7000F;stroke:#FFFFFF;stroke-width:2.480647e-02;stroke-miterlimit:10;}
	.st97{fill:#D7000F;stroke:#FFFFFF;stroke-width:3.617936e-02;stroke-linecap:round;stroke-miterlimit:10;}
	.st98{fill:#D7000F;stroke:#FFFFFF;stroke-width:3.617871e-02;stroke-linecap:round;stroke-miterlimit:10;}
	.st99{fill:#D7000F;stroke:#FFFFFF;stroke-width:3.617907e-02;stroke-linecap:round;stroke-miterlimit:10;}
	.st100{fill:#D7000F;stroke:#FFFFFF;stroke-width:3.617896e-02;stroke-linecap:round;stroke-miterlimit:10;}
	.st101{fill:#D7000F;stroke:#FFFFFF;stroke-width:3.617892e-02;stroke-linecap:round;stroke-miterlimit:10;}
	.st102{fill:#003F75;stroke:#FFFFFF;stroke-width:9.209744e-02;stroke-miterlimit:10;}
	.st103{fill:#003F75;stroke:#FFFFFF;stroke-width:2.456486e-02;stroke-linecap:round;stroke-miterlimit:10;}
	.st104{fill:#003F75;stroke:#FFFFFF;stroke-width:2.456504e-02;stroke-linecap:round;stroke-miterlimit:10;}
	.st105{fill:#003F75;stroke:#FFFFFF;stroke-width:2.456481e-02;stroke-linecap:round;stroke-miterlimit:10;}
	.st106{fill:#003F75;stroke:#FFFFFF;stroke-width:2.456482e-02;stroke-linecap:round;stroke-miterlimit:10;}
	.st107{fill:#003F75;stroke:#FFFFFF;stroke-width:2.456484e-02;stroke-linecap:round;stroke-miterlimit:10;}
	.st108{fill:#003F75;stroke:#FFFFFF;stroke-width:2.456500e-02;stroke-linecap:round;stroke-miterlimit:10;}
	.st109{fill:#003F75;stroke:#FFFFFF;stroke-width:1.684324e-02;stroke-miterlimit:10;}
	.st110{fill:none;stroke:#FFFFFF;stroke-width:0.1064;stroke-linecap:round;stroke-miterlimit:10;}
	.st111{fill:#003F75;stroke:#FFFFFF;stroke-width:9.209777e-02;stroke-miterlimit:10;}
	.st112{fill:#003F75;stroke:#FFFFFF;stroke-width:2.456450e-02;stroke-linecap:round;stroke-miterlimit:10;}
	.st113{fill:#003F75;stroke:#FFFFFF;stroke-width:2.456468e-02;stroke-linecap:round;stroke-miterlimit:10;}
	.st114{fill:#003F75;stroke:#FFFFFF;stroke-width:2.456497e-02;stroke-linecap:round;stroke-miterlimit:10;}
	.st115{fill:#003F75;stroke:#FFFFFF;stroke-width:2.456495e-02;stroke-linecap:round;stroke-miterlimit:10;}
	.st116{fill:#003F75;stroke:#FFFFFF;stroke-width:1.684333e-02;stroke-miterlimit:10;}
	.st117{fill:#D7000F;stroke:#FFFFFF;stroke-width:9.206782e-02;stroke-miterlimit:10;}
	.st118{fill:#D7000F;stroke:#FFFFFF;stroke-width:2.455707e-02;stroke-linecap:round;stroke-miterlimit:10;}
	.st119{fill:#D7000F;stroke:#FFFFFF;stroke-width:2.455691e-02;stroke-linecap:round;stroke-miterlimit:10;}
	.st120{fill:#D7000F;stroke:#FFFFFF;stroke-width:2.455705e-02;stroke-linecap:round;stroke-miterlimit:10;}
	.st121{fill:#D7000F;stroke:#FFFFFF;stroke-width:2.455701e-02;stroke-linecap:round;stroke-miterlimit:10;}
	.st122{fill:#D7000F;stroke:#FFFFFF;stroke-width:2.455694e-02;stroke-linecap:round;stroke-miterlimit:10;}
	.st123{fill:#D7000F;stroke:#FFFFFF;stroke-width:1.683778e-02;stroke-miterlimit:10;}
	.st124{fill:#D7000F;stroke:#FFFFFF;stroke-width:9.206801e-02;stroke-miterlimit:10;}
	.st125{fill:#D7000F;stroke:#FFFFFF;stroke-width:2.455725e-02;stroke-linecap:round;stroke-miterlimit:10;}
	.st126{fill:#D7000F;stroke:#FFFFFF;stroke-width:2.455706e-02;stroke-linecap:round;stroke-miterlimit:10;}
	.st127{fill:#D7000F;stroke:#FFFFFF;stroke-width:2.455726e-02;stroke-linecap:round;stroke-miterlimit:10;}
	.st128{fill:#D7000F;stroke:#FFFFFF;stroke-width:1.683786e-02;stroke-miterlimit:10;}
	.st129{fill:#D7000F;stroke:#FFFFFF;stroke-width:9.206820e-02;stroke-miterlimit:10;}
	.st130{fill:#D7000F;stroke:#FFFFFF;stroke-width:2.455671e-02;stroke-linecap:round;stroke-miterlimit:10;}
	.st131{fill:#D7000F;stroke:#FFFFFF;stroke-width:2.455711e-02;stroke-linecap:round;stroke-miterlimit:10;}
	.st132{fill:#D7000F;stroke:#FFFFFF;stroke-width:2.455683e-02;stroke-linecap:round;stroke-miterlimit:10;}
	.st133{fill:#D7000F;stroke:#FFFFFF;stroke-width:2.455690e-02;stroke-linecap:round;stroke-miterlimit:10;}
	.st134{fill:#D7000F;stroke:#FFFFFF;stroke-width:9.206840e-02;stroke-miterlimit:10;}
	.st135{fill:#D7000F;stroke:#FFFFFF;stroke-width:2.455688e-02;stroke-linecap:round;stroke-miterlimit:10;}
	.st136{fill:#D7000F;stroke:#FFFFFF;stroke-width:2.455696e-02;stroke-linecap:round;stroke-miterlimit:10;}
	.st137{fill:#D7000F;stroke:#FFFFFF;stroke-width:1.683773e-02;stroke-miterlimit:10;}
	.st138{fill:#003F75;stroke:#FFFFFF;stroke-width:9.209704e-02;stroke-miterlimit:10;}
	.st139{fill:#003F75;stroke:#FFFFFF;stroke-width:2.456511e-02;stroke-linecap:round;stroke-miterlimit:10;}
	.st140{fill:#003F75;stroke:#FFFFFF;stroke-width:2.456483e-02;stroke-linecap:round;stroke-miterlimit:10;}
	.st141{fill:#003F75;stroke:#FFFFFF;stroke-width:2.456470e-02;stroke-linecap:round;stroke-miterlimit:10;}
	.st142{fill:#003F75;stroke:#FFFFFF;stroke-width:2.456485e-02;stroke-linecap:round;stroke-miterlimit:10;}
	.st143{fill:#003F75;stroke:#FFFFFF;stroke-width:1.684316e-02;stroke-miterlimit:10;}
	.st144{fill:#003F75;stroke:#FFFFFF;stroke-width:8.368510e-02;stroke-miterlimit:10;}
	.st145{fill:#003F75;stroke:#FFFFFF;stroke-width:2.232118e-02;stroke-linecap:round;stroke-miterlimit:10;}
	.st146{fill:#003F75;stroke:#FFFFFF;stroke-width:2.232112e-02;stroke-linecap:round;stroke-miterlimit:10;}
	.st147{fill:#003F75;stroke:#FFFFFF;stroke-width:2.232100e-02;stroke-linecap:round;stroke-miterlimit:10;}
	.st148{fill:#003F75;stroke:#FFFFFF;stroke-width:2.232096e-02;stroke-linecap:round;stroke-miterlimit:10;}
	.st149{fill:#003F75;stroke:#FFFFFF;stroke-width:2.232122e-02;stroke-linecap:round;stroke-miterlimit:10;}
	.st150{fill:#003F75;stroke:#FFFFFF;stroke-width:1.530475e-02;stroke-miterlimit:10;}
	.st151{fill:none;stroke:#FFFFFF;stroke-width:0.1015;stroke-linecap:round;stroke-miterlimit:10;}
	.st152{fill:#003F75;stroke:#FFFFFF;stroke-width:2.232135e-02;stroke-linecap:round;stroke-miterlimit:10;}
	.st153{fill:#003F75;stroke:#FFFFFF;stroke-width:2.232124e-02;stroke-linecap:round;stroke-miterlimit:10;}
	.st154{fill:#003F75;stroke:#FFFFFF;stroke-width:2.232115e-02;stroke-linecap:round;stroke-miterlimit:10;}
	.st155{fill:#003F75;stroke:#FFFFFF;stroke-width:2.232106e-02;stroke-linecap:round;stroke-miterlimit:10;}
	.st156{fill:#003F75;stroke:#FFFFFF;stroke-width:2.232126e-02;stroke-linecap:round;stroke-miterlimit:10;}
	.st157{fill:#003F75;stroke:#FFFFFF;stroke-width:2.232089e-02;stroke-linecap:round;stroke-miterlimit:10;}
	.st158{fill:#003F75;stroke:#FFFFFF;stroke-width:2.232108e-02;stroke-linecap:round;stroke-miterlimit:10;}
	.st159{fill:#003F75;stroke:#FFFFFF;stroke-width:2.232092e-02;stroke-linecap:round;stroke-miterlimit:10;}
	.st160{fill:#003F75;stroke:#FFFFFF;stroke-width:2.232093e-02;stroke-linecap:round;stroke-miterlimit:10;}
	.st161{fill:#003F75;stroke:#FFFFFF;stroke-width:2.232114e-02;stroke-linecap:round;stroke-miterlimit:10;}
	.st162{fill:#003F75;stroke:#FFFFFF;stroke-width:2.232095e-02;stroke-linecap:round;stroke-miterlimit:10;}
	.st163{fill:#003F75;stroke:#FFFFFF;stroke-width:8.368473e-02;stroke-miterlimit:10;}
	.st164{fill:#003F75;stroke:#FFFFFF;stroke-width:2.232087e-02;stroke-linecap:round;stroke-miterlimit:10;}
	.st165{fill:#003F75;stroke:#FFFFFF;stroke-width:2.232090e-02;stroke-linecap:round;stroke-miterlimit:10;}
	.st166{fill:#003F75;stroke:#FFFFFF;stroke-width:1.530450e-02;stroke-miterlimit:10;}
	.st167{fill:#003F75;stroke:#FFFFFF;stroke-width:2.232113e-02;stroke-linecap:round;stroke-miterlimit:10;}
	.st168{fill:#003F75;stroke:#FFFFFF;stroke-width:2.232102e-02;stroke-linecap:round;stroke-miterlimit:10;}
	.st169{fill:#003F75;stroke:#FFFFFF;stroke-width:1.530451e-02;stroke-miterlimit:10;}
	.st170{fill:#003F75;stroke:#FFFFFF;stroke-width:2.232083e-02;stroke-linecap:round;stroke-miterlimit:10;}
	.st171{fill:#003F75;stroke:#FFFFFF;stroke-width:2.232101e-02;stroke-linecap:round;stroke-miterlimit:10;}
	.st172{fill:#003F75;stroke:#FFFFFF;stroke-width:2.232105e-02;stroke-linecap:round;stroke-miterlimit:10;}
	.st173{fill:#003F75;stroke:#FFFFFF;stroke-width:8.596040e-02;stroke-miterlimit:10;}
	.st174{fill:#003F75;stroke:#FFFFFF;stroke-width:2.292787e-02;stroke-linecap:round;stroke-miterlimit:10;}
	.st175{fill:#003F75;stroke:#FFFFFF;stroke-width:2.292774e-02;stroke-linecap:round;stroke-miterlimit:10;}
	.st176{fill:#003F75;stroke:#FFFFFF;stroke-width:2.292797e-02;stroke-linecap:round;stroke-miterlimit:10;}
	.st177{fill:#003F75;stroke:#FFFFFF;stroke-width:2.292801e-02;stroke-linecap:round;stroke-miterlimit:10;}
	.st178{fill:#003F75;stroke:#FFFFFF;stroke-width:2.292794e-02;stroke-linecap:round;stroke-miterlimit:10;}
	.st179{fill:#003F75;stroke:#FFFFFF;stroke-width:1.572062e-02;stroke-miterlimit:10;}
	.st180{fill:none;stroke:#FFFFFF;stroke-width:0.1028;stroke-linecap:round;stroke-miterlimit:10;}
	.st181{fill:#003F75;stroke:#FFFFFF;stroke-width:2.292805e-02;stroke-linecap:round;stroke-miterlimit:10;}
	.st182{fill:#003F75;stroke:#FFFFFF;stroke-width:2.292792e-02;stroke-linecap:round;stroke-miterlimit:10;}
	.st183{fill:#003F75;stroke:#FFFFFF;stroke-width:8.596046e-02;stroke-miterlimit:10;}
	.st184{fill:#003F75;stroke:#FFFFFF;stroke-width:2.292777e-02;stroke-linecap:round;stroke-miterlimit:10;}
	.st185{fill:#003F75;stroke:#FFFFFF;stroke-width:2.292795e-02;stroke-linecap:round;stroke-miterlimit:10;}
	.st186{fill:#003F75;stroke:#FFFFFF;stroke-width:1.572070e-02;stroke-miterlimit:10;}
	.st187{fill:#003F75;stroke:#FFFFFF;stroke-width:8.596025e-02;stroke-miterlimit:10;}
	.st188{fill:#003F75;stroke:#FFFFFF;stroke-width:2.292798e-02;stroke-linecap:round;stroke-miterlimit:10;}
	.st189{fill:#003F75;stroke:#FFFFFF;stroke-width:2.292785e-02;stroke-linecap:round;stroke-miterlimit:10;}
	.st190{fill:#003F75;stroke:#FFFFFF;stroke-width:2.292799e-02;stroke-linecap:round;stroke-miterlimit:10;}
	.st191{fill:#003F75;stroke:#FFFFFF;stroke-width:1.572087e-02;stroke-miterlimit:10;}
	.st192{fill:#003F75;stroke:#FFFFFF;stroke-width:2.292791e-02;stroke-linecap:round;stroke-miterlimit:10;}
	.st193{fill:#003F75;stroke:#FFFFFF;stroke-width:2.292783e-02;stroke-linecap:round;stroke-miterlimit:10;}
	.st194{fill:#003F75;stroke:#FFFFFF;stroke-width:2.292793e-02;stroke-linecap:round;stroke-miterlimit:10;}
	.st195{fill:#003F75;stroke:#FFFFFF;stroke-width:8.596013e-02;stroke-miterlimit:10;}
	.st196{fill:#003F75;stroke:#FFFFFF;stroke-width:1.572094e-02;stroke-miterlimit:10;}
	.st197{fill:#D7000F;stroke:#FFFFFF;stroke-width:8.593954e-02;stroke-miterlimit:10;}
	.st198{fill:#D7000F;stroke:#FFFFFF;stroke-width:2.292256e-02;stroke-linecap:round;stroke-miterlimit:10;}
	.st199{fill:#D7000F;stroke:#FFFFFF;stroke-width:2.292274e-02;stroke-linecap:round;stroke-miterlimit:10;}
	.st200{fill:#D7000F;stroke:#FFFFFF;stroke-width:2.292227e-02;stroke-linecap:round;stroke-miterlimit:10;}
	.st201{fill:#D7000F;stroke:#FFFFFF;stroke-width:2.292232e-02;stroke-linecap:round;stroke-miterlimit:10;}
	.st202{fill:#D7000F;stroke:#FFFFFF;stroke-width:2.292226e-02;stroke-linecap:round;stroke-miterlimit:10;}
	.st203{fill:#D7000F;stroke:#FFFFFF;stroke-width:1.571725e-02;stroke-miterlimit:10;}
	.st204{fill:#D7000F;stroke:#FFFFFF;stroke-width:8.593947e-02;stroke-miterlimit:10;}
	.st205{fill:#D7000F;stroke:#FFFFFF;stroke-width:2.292280e-02;stroke-linecap:round;stroke-miterlimit:10;}
	.st206{fill:#D7000F;stroke:#FFFFFF;stroke-width:2.292224e-02;stroke-linecap:round;stroke-miterlimit:10;}
	.st207{fill:#D7000F;stroke:#FFFFFF;stroke-width:2.292238e-02;stroke-linecap:round;stroke-miterlimit:10;}
	.st208{fill:#D7000F;stroke:#FFFFFF;stroke-width:2.292214e-02;stroke-linecap:round;stroke-miterlimit:10;}
	.st209{fill:#D7000F;stroke:#FFFFFF;stroke-width:1.571717e-02;stroke-miterlimit:10;}
	.st210{fill:#D7000F;stroke:#FFFFFF;stroke-width:2.292216e-02;stroke-linecap:round;stroke-miterlimit:10;}
	.st211{fill:#D7000F;stroke:#FFFFFF;stroke-width:2.292233e-02;stroke-linecap:round;stroke-miterlimit:10;}
	.st212{fill:#D7000F;stroke:#FFFFFF;stroke-width:2.292220e-02;stroke-linecap:round;stroke-miterlimit:10;}
	.st213{fill:#D7000F;stroke:#FFFFFF;stroke-width:2.292229e-02;stroke-linecap:round;stroke-miterlimit:10;}
	.st214{fill:#D7000F;stroke:#FFFFFF;stroke-width:3.617861e-02;stroke-linecap:round;stroke-miterlimit:10;}
	.st215{fill:#D7000F;stroke:#FFFFFF;stroke-width:3.617875e-02;stroke-linecap:round;stroke-miterlimit:10;}
	.st216{fill:#D7000F;stroke:#FFFFFF;stroke-width:3.617888e-02;stroke-linecap:round;stroke-miterlimit:10;}
	.st217{fill:#D7000F;stroke:#FFFFFF;stroke-width:3.617921e-02;stroke-linecap:round;stroke-miterlimit:10;}
	.st218{fill:#D7000F;stroke:#FFFFFF;stroke-width:3.617909e-02;stroke-linecap:round;stroke-miterlimit:10;}
	.st219{fill:#D7000F;stroke:#FFFFFF;stroke-width:2.480641e-02;stroke-miterlimit:10;}
</style>
<g>
	<g>
		<path class="st0" d="M0.6,17.1c-0.3-0.3-0.4-0.6-0.4-1V8.9V1.6c0-0.4,0.2-0.7,0.4-1s0.6-0.4,1-0.4h5.3h5.3c0.4,0,0.7,0.2,1,0.4
			l1.7,1.7c0.3,0.3,0.4,0.6,0.4,1v7.3v7.3c0,0.4-0.2,0.7-0.4,1c-0.3,0.3-0.6,0.4-1,0.4H8.6H3.3c-0.4,0-0.7-0.2-1-0.4L0.6,17.1z"/>
		<path class="st1" d="M14,1.4c0.3,0.4,0.4,0.6,0.4,1v7.3V17c0,0.4-0.2,0.7-0.4,1s-0.6,0.4-1,0.4H7.7H2.4c-0.4,0-0.7-0.2-1-0.4
			l0.9,0.9c0.3,0.3,0.6,0.4,1,0.4h5.3h5.3c0.4,0,0.7-0.2,1-0.4s0.4-0.6,0.4-1v-7.3V3.3c0-0.4-0.2-0.7-0.4-1"/>
		<path class="st2" d="M13.6,16.1c0,0.8-0.6,1.4-1.4,1.4H1.6c-0.8,0-1.4-0.6-1.4-1.4V1.6c0-0.8,0.6-1.4,1.4-1.4h10.6
			c0.8,0,1.4,0.6,1.4,1.4V16.1z"/>
		<path class="st3" d="M0.6,17.1c-0.3-0.3-0.4-0.6-0.4-1V8.9V1.6c0-0.4,0.2-0.7,0.4-1s0.6-0.4,1-0.4h5.3h5.3c0.4,0,0.7,0.2,1,0.4
			l1.7,1.7c0.3,0.3,0.4,0.6,0.4,1v7.3v7.3c0,0.4-0.2,0.7-0.4,1c-0.3,0.3-0.6,0.4-1,0.4H8.6H3.3c-0.4,0-0.7-0.2-1-0.4L0.6,17.1z"/>
	</g>
	<g>
		<path class="st25" d="M7.3,7.2c-0.5,0.1-1,0.1-1.4,0.2C5.4,7.4,5,7.5,4.7,7.5c-0.3,0-0.5,0.1-0.5,0.2C4.1,7.8,4,7.7,4,7.5
			C3.9,7.3,3.9,7.2,4,7.2c0.2,0,0.7-0.1,1.3-0.2c0.1-0.1,0.2-0.1,0.3-0.2c0.1-0.1,0.3-0.6,0.7-1.7C5.8,5.2,5.5,5.3,5.2,5.4
			C5.1,5.4,5,5.4,5.1,5.2c0-0.2,0.1-0.3,0.1-0.4c0-0.1,0.1-0.1,0.2-0.1c0.2,0,0.5-0.1,1.1-0.2c0.2-0.5,0.2-0.8,0.3-1.1
			c-0.1,0-0.1,0-0.2,0c-0.2-0.1-0.4,0-0.7,0.1c-0.1,0.1-0.2,0-0.2-0.1c0-0.2-0.1-0.3-0.1-0.4c-0.1-0.1,0-0.2,0.3-0.2
			c0.6,0,1.2-0.1,1.7-0.2c0.5-0.1,0.8-0.2,1.1-0.2c0.1,0,0.2,0.1,0.2,0.3c0,0.2,0,0.3-0.1,0.3C8.3,3.1,8,3.2,7.8,3.3
			C7.5,3.5,7.4,3.6,7.3,3.8c0,0.1-0.1,0.4-0.3,0.7c0.5-0.1,0.9-0.1,1.3,0c0.1,0,0.3,0.1,0.6,0.2c0.2,0.1,0.3,0.2,0.2,0.2
			C9,4.9,8.8,5.2,8.5,5.6C8.2,6,8.2,6.4,8.3,6.6c0.2,0,0.4,0,0.7,0.1c0.5,0.1,0.8,0.1,0.9,0.1c0.1,0,0.2,0.1,0.3,0.3
			c0.1,0.2,0.1,0.4,0.1,0.5c0,0.1-0.1,0.2-0.1,0.1C9.7,7.5,9.3,7.3,8.7,7.3C8.1,7.2,7.6,7.2,7.3,7.2z M6.3,6.7
			c0.4-0.1,0.7-0.1,1.1-0.1c0.1-0.2,0.3-0.4,0.4-0.8C8,5.5,8,5.2,8,5C7.8,4.9,7.5,4.9,6.9,5c0,0.1-0.1,0.2-0.1,0.3
			C6.5,6.1,6.4,6.6,6.3,6.7z"/>
	</g>
	<g>
		<path class="st17" d="M5.9,10.1C5.7,9.6,5.6,9.4,5.6,9.3c0.1,0,0.2,0,0.5,0c0.2,0,0.3,0.1,0.3,0.2c-0.1,0.1-0.1,0.3,0,0.7
			c0.1,0.4,0.1,0.6,0.2,0.6c0,0.1,0,0.2-0.1,0.2c-0.1,0-0.2,0-0.2-0.1c0-0.1-0.1-0.2-0.1-0.2c0,0-0.1,0-0.1,0
			c-0.2,0-0.3,0.1-0.5,0.1c-0.2,0.1-0.3,0.1-0.3,0.1C5,11,4.9,11.1,4.9,11c0-0.1-0.1-0.2-0.2-0.3c-0.1-0.1-0.1-0.2,0-0.2
			c0.1,0,0.2,0,0.2,0c0.1,0,0.3-0.1,0.5-0.2C5.5,10.2,5.7,10.2,5.9,10.1z M9.5,14.4c-0.1,0.4-0.3,0.9-0.6,1.6
			c-0.1,0.2-0.2,0.2-0.2,0.1C8.5,16,8.3,15.8,8,15.6c-0.2-0.2-0.4-0.3-0.5-0.5C7.5,15.1,7.5,15,7.5,15c0,0,0.1,0,0.2,0.1
			c0.3,0.3,0.6,0.3,0.8,0.2c0.1-0.1,0.2-0.4,0.3-0.8c0.1-0.5,0.1-0.8,0-0.9c-0.2-0.2-0.6-0.2-1.2-0.1c-0.2,0-0.4,0-0.5,0.1
			c0,0.2,0,0.3,0.1,0.3c0,0,0,0.1,0,0.1c0.1,0,0.1-0.1,0.2-0.1c0.1-0.2,0.3-0.3,0.5-0.2c0.2,0,0.4,0.2,0.5,0.4
			c0.1,0.2,0.1,0.4,0.1,0.5c0,0.1-0.1,0.2-0.1,0.1c-0.1,0-0.2,0-0.3-0.1c-0.3-0.1-0.4-0.1-0.3-0.2c0.1,0,0.2,0,0.2-0.1
			c0.2-0.2,0.1-0.4-0.1-0.6c-0.1,0-0.2,0-0.3,0c-0.1,0.1-0.1,0.2-0.2,0.5c0,0.1,0,0.1,0,0.1C6.8,14.6,6.3,14.7,6,15
			c-0.1,0.1-0.1,0-0.2-0.3c-0.1-0.2-0.1-0.4,0-0.4c0.1,0,0.3,0,0.6-0.1c0,0,0.1-0.1,0.1-0.2c0,0,0-0.2,0-0.4c-0.2,0-0.4,0.1-0.5,0.1
			c-0.4,0.1-0.7,0.2-0.7,0.3c0,0.2,0,0.6,0.2,1.1c0,0.1,0.1,0.2,0.1,0.2c0,0,0,0.1-0.1,0.2c-0.1,0.1-0.3-0.1-0.4-0.4
			C5,15,4.9,14.9,4.9,14.8c-0.3-0.6-0.3-0.9-0.2-0.9c0.1,0,0.4-0.1,0.8-0.3c0.3-0.1,0.6-0.2,1.1-0.3c0-0.1,0-0.2,0-0.4
			C6.4,13,6.2,13,6.1,13.1c-0.1,0-0.1,0-0.2-0.1c-0.2-0.3-0.5-0.8-0.7-1.4c0-0.1,0-0.2,0-0.2c0.1,0,0.2,0,0.3-0.1
			c0.3-0.1,0.6-0.2,1.1-0.3C6.8,11,6.9,11,7,10.9c0,0,0,0,0-0.1c0.1-0.2,0.2-0.5,0.3-0.8c0-0.1,0-0.1,0-0.1c0,0,0,0,0,0
			c0.1-0.3,0.3-0.7,0.4-1.1c0-0.1,0.1-0.1,0.2-0.1C8.2,8.9,8.3,8.9,8.4,9c0.1,0,0.1,0.1,0,0.2C8.3,9.4,8.1,9.6,8,9.9
			c0.1,0,0.2,0,0.3,0c0.2,0,0.5-0.1,0.9-0.1c0.1,0,0.1,0.1,0.1,0.3c0,0.2-0.1,0.3-0.2,0.2c-0.3,0-0.5,0-0.8,0.1
			c-0.3,0-0.5,0.1-0.5,0.1c-0.1,0-0.1,0.1-0.2,0.1c0,0-0.1,0.1-0.1,0.1c-0.1,0.1-0.2,0.2-0.2,0.3c0.4-0.1,0.6-0.1,0.8,0
			c0.5,0.2,0.8,0.4,0.7,0.5c-0.1,0.2-0.2,0.4-0.3,0.6c-0.1,0.3-0.2,0.6-0.4,1c0,0,0,0.1,0,0.1c0.4,0,0.8,0,1.1,0.2
			c0.5,0.2,0.7,0.3,0.5,0.5C9.6,13.8,9.5,14.1,9.5,14.4z M6.5,11.8c0-0.2-0.1-0.3-0.1-0.4c-0.1,0-0.2,0.1-0.3,0.1
			C6.1,11.6,6,11.7,6,11.7c0,0,0,0.1,0,0.1c0.1,0.1,0.2,0.1,0.2,0C6.3,11.8,6.4,11.8,6.5,11.8z M6.6,12.6c0-0.2,0-0.3,0-0.4
			c-0.1,0-0.2,0.1-0.2,0.1c-0.1,0-0.2,0.1-0.3,0.2c0,0.1,0,0.1,0.1,0.2C6.2,12.7,6.3,12.7,6.6,12.6C6.6,12.6,6.6,12.6,6.6,12.6z
			 M7.1,12c0,0.1,0,0.3,0,0.4c0.1,0,0.1,0,0.2,0c0.1,0,0.1,0,0.1,0c0,0.1,0,0.1,0.1,0.1c0,0,0,0,0.1,0c0.1-0.1,0.2-0.3,0.2-0.7
			c0.1-0.4,0-0.6,0-0.6c-0.1-0.1-0.3-0.1-0.6,0c-0.1,0.2-0.1,0.3-0.1,0.4c0,0,0,0,0,0.1c0.1,0,0.2-0.1,0.3-0.1c0.1,0,0.1,0,0.1,0.2
			c0,0.1,0,0.2,0,0.2C7.4,12,7.2,12,7.1,12z M7.1,12.8c0,0.2,0,0.3,0,0.4c0,0,0.1,0,0.2,0c0.2,0,0.3-0.1,0.5-0.1
			c-0.1,0-0.1-0.1-0.2-0.2C7.4,12.8,7.2,12.7,7.1,12.8C7.1,12.8,7.1,12.8,7.1,12.8z"/>
	</g>
</g>
</svg>
