<?xml version="1.0" encoding="utf-8"?>
<!-- Generator: Adobe Illustrator 26.2.1, SVG Export Plug-In . SVG Version: 6.00 Build 0)  -->
<svg version="1.1" id="レイヤー_1" xmlns="http://www.w3.org/2000/svg" xmlns:xlink="http://www.w3.org/1999/xlink" x="0px"
	 y="0px" viewBox="0 0 186.7 33.9" style="enable-background:new 0 0 186.7 33.9;" xml:space="preserve">
<style type="text/css">
	.st0{fill:#231815;}
	.st1{fill:#C60025;}
</style>
<g>
	<path class="st0" d="M6.3,19.6c1.4-5.4,1.9-9,1.5-10.6C7.6,8.4,7.9,8.2,8.7,8.3c2.6,0.1,5-0.2,7.3-0.9c2.2-0.6,4-1,5.5-1.1
		c1.4-0.2,2.4-0.4,2.9-0.8c0.3-0.1,0.5,0,0.8,0.3c0.2,0.3,0.5,0.7,1,0.9c0.4,0.3,0.6,0.7,0.5,1.4c-0.2,0.6-0.4,0.8-0.7,0.7
		c-2.3-0.3-4.4-0.1-6.5,0.6c-2.1,0.7-4.6,1.1-7.4,1.2c-1,0-1.6,0.7-1.9,2.3c-0.4,2-0.7,3.6-1,4.8c0.4,0,1.7-0.3,4.2-0.8
		c0-1,0-2,0.1-2.9c0.1-0.6,0-1,0-1.2c-0.2-0.2,0.1-0.3,0.8-0.2c0.8,0.2,1.4,0.3,2,0.5c0.5,0.1,0.6,0.3,0.3,0.6
		c-0.4,0.3-0.6,0.9-0.7,1.7c-0.1,0.3-0.1,0.7-0.1,1c0.1,0,0.2-0.1,0.3-0.1c1.3-0.4,1.9-0.5,2-0.2c0,0.3,0,0.7,0.1,1.2
		c0,0.5-0.3,0.9-0.9,1.1c-0.5,0.2-1.1,0.4-1.6,0.6c-0.1,0.2-0.1,0.3-0.1,0.5c0.5,0.7,1.2,1.4,2.4,2c0.3,0.2,0.3,0.7,0.1,1.4
		c-0.3,0.7-0.7,1-1.2,0.6c-0.6-0.4-1.1-0.7-1.5-1c-0.2,2.4-0.3,5.2-0.4,8.3c0.1,1.5-0.1,2.2-0.4,2.2c-0.9-0.2-1.6-0.5-2.1-0.9
		c-0.4-0.2-0.4-0.4,0-0.7c0.5-0.2,0.7-0.5,0.7-1c0-2.2,0-4.2,0-6c-0.4,0.3-0.8,0.8-1.1,1.3c-1.1,1.5-2.7,2.8-4.6,3.9
		c-0.3,0.2-0.6,0.2-0.9,0.2c-0.3,0-0.2-0.3,0.2-0.8c1.8-2,3.4-4.1,4.7-6.1c0.7-1.4,1.3-2.5,1.7-3.4c-1.6,0.3-2.5,0.7-2.8,1.1
		c-0.3,0.4-0.7,0-1.1-1.3C9.2,19,9.1,18.7,9,18.4c-0.3,0.9-0.5,1.5-0.8,2c-0.7,1.1-1.2,2.1-1.5,2.8c-0.2,0.4-0.2,0.8,0.1,1.2
		c0.3,0.4,0.2,0.8-0.2,1.2c-1.5,1.7-3.4,3.1-5.8,4.2c-1,0.4-1.2,0.2-0.5-0.5c0.9-1.2,1.9-2.5,3.1-3.8C4.6,24.1,5.5,22.2,6.3,19.6z
		 M15.9,4.7c-0.5-1.3-0.5-2.4-0.2-3.2c0.7-1.4,1.3-1.8,2-1c0.2,0.2,0.4,0.5,0.7,1.1c0.2,0.6,0.5,1.1,1,1.5c0.4,0.5,0.7,0.8,0.9,1.2
		c0.2,0.2,0.1,0.5-0.2,0.9c-0.3,0.3-0.9,0.5-1.5,0.3c-0.7-0.1-1.4-0.2-1.8-0.3C16.2,5.2,15.9,5,15.9,4.7z M16.5,26
		c1.6-1.7,2.9-3.4,4.1-5.1c0.5-0.9,1-1.7,1.3-2.4c0-0.2,0-0.3,0-0.5c-0.9,0.3-1.5,0.6-1.7,0.9c-0.2,0.4-0.6,0-1.1-1.3
		c-0.5-1.2-0.7-1.8-0.3-1.7c0.2,0,1.2-0.2,3-0.7c-0.1-1.2-0.1-2.3,0-3.3c0-0.6,0-1-0.1-1.3c-0.2-0.2,0.1-0.3,0.8-0.3
		c0.8,0.2,1.5,0.3,2.2,0.5c0.5,0.1,0.6,0.3,0.3,0.7c-0.3,0.3-0.6,1-0.6,1.8c-0.1,0.4-0.1,0.8-0.1,1.3c0.6-0.2,1.3-0.3,2.2-0.5
		c1.2-0.5,1.9-0.5,1.9-0.3c0,0.3,0,0.7,0.1,1.2c0,0.5-0.3,0.9-0.8,1.1c-1,0.5-2.2,0.8-3.4,1.2c0,0.1,0,0.1,0,0.1
		c0.1,0.2,0.2,0.3,0.4,0.6c0.4,0.7,1.2,1.7,2.2,2.9c1,1.2,1.9,2.1,2.7,2.7c0.9,0.8,2,1.4,3.4,2c1.3,0.7,2.1,1.2,2.6,1.8
		c0.2,0.3,0.1,0.5-0.2,0.5c-1,0.1-2.4,0.1-4.1,0c-1.8-0.1-2.7-0.4-2.7-1c-0.1-0.5-0.2-0.9-0.3-1.2c-0.3-0.7-0.7-1.2-1.3-1.7
		c-0.6-0.5-1.2-1.1-1.8-2c-0.3-0.4-0.6-0.7-0.9-1c-0.1,3-0.1,6.5,0,10.3c0.1,1.6-0.1,2.5-0.4,2.5c-1-0.2-1.8-0.5-2.4-0.9
		c-0.5-0.2-0.5-0.5,0-0.8c0.5-0.3,0.7-0.6,0.7-1C22.1,28,22,25.1,22,22.4c-0.3,0.3-0.6,0.7-0.8,1c-1,1.2-2.3,2.3-3.9,3.2
		c-0.4,0.2-0.7,0.2-1,0.2C15.9,26.8,15.9,26.5,16.5,26z"/>
	<path class="st0" d="M60.3,29.6c-3.6,0.2-6.4,0.7-8.4,1.3c0,0.5,0,1,0.1,1.5c0.1,1.3-0.4,1.7-1.7,1.1c-1.5-0.5-1.9-0.9-1.3-1.3
		c0.4-0.2,0.7-0.8,0.8-2c0-1.6,0-3.9,0-6.8c-0.1-2.1-0.2-3.8-0.2-5.1c-1,0.7-2.1,1.4-3.1,2.1c-0.6,0.5-1,1-1.1,1.4
		c-0.2,0.5-1.5,1-3.8,1.4c-1,0.2-1.9,0.1-2.5-0.2c-0.8-0.2-0.9-0.5-0.3-0.7c1.1-0.6,2.4-1.2,3.8-1.8c1.4-0.7,3.1-1.7,5.2-3.1
		c0.5-0.4,1.1-0.8,1.8-1.2c0.1-0.1,0.2-0.2,0.3-0.2c2.8-2,4.9-3.7,6.5-5.1c-0.2,0-0.3,0-0.5-0.2c-1.5-0.6-2-1-1.3-1.4
		c0.5-0.2,0.7-0.9,0.9-2.1c0-0.7,0-1.7-0.1-3c-0.1-1.3-0.2-2.2-0.2-2.9c-0.2-0.6,0-0.9,0.3-1c1.1,0,1.9,0.2,2.7,0.7
		c0.3,0.3,0.4,0.7,0.3,1C58.3,2.6,58.1,3.5,58,5c-0.2,0.9-0.3,1.8-0.3,2.5c-0.1,0.8-0.1,1.5,0,2c1.5-1.9,2.4-3,2.7-3.2
		c0.2-0.5,0.7-0.3,1.7,0.4c0.9,0.7,1,1.3,0.2,1.6c-0.3,0.2-1.7,1.5-4.2,3.7c-1.4,1.2-3,2.4-4.8,3.8c0.3,0,0.6,0,0.9,0
		c1.1-0.2,2.6-0.5,4.6-0.8c0.8-1,1.4-2.1,2.1-3.4c0.1-0.4,0.3-0.5,0.8-0.1c0.3,0.3,0.7,0.7,1.2,0.8c0.4,0.2,0.4,0.4,0.2,0.6
		c-0.2,0.1-0.3,0.3-0.6,0.5c-0.3,0.3-0.6,0.7-0.9,1c-0.2,0.1-0.3,0.2-0.3,0.2c1.2-0.2,2.8-0.4,4.9-0.7c0.3-0.1,0.5,0.4,0.6,1.5
		c0.1,1.2-0.3,1.5-1.1,1c-1.5,0-3.1,0.1-4.7,0.3c0,0.1,0,0.2,0,0.2c0,0.3,0,1,0,1.9c1-0.1,2.2-0.3,3.8-0.5c0.2-0.1,0.3,0.3,0.5,1.4
		c0.1,1-0.3,1.3-1,0.9c-1,0-2.2,0.1-3.4,0.2c0,0.3,0,0.7,0,1.1c0,0.3,0,0.6,0,0.8c1-0.2,2.3-0.3,3.9-0.6c0.3-0.2,0.5,0.3,0.6,1.4
		c0.1,1.1-0.3,1.4-1,1c-1.1,0-2.3,0.1-3.4,0.2c0,1.1,0,1.7,0.2,1.9c0,0.1,0,0.2,0.2,0.3c1.3-0.1,2.5-0.2,3.8-0.2
		c1.4,0,2.3-0.1,2.7-0.2c0.2-0.1,0.4,0.1,0.5,0.5c0.2,0.4,0.3,0.7,0.7,0.8c0.2,0.2,0.3,0.7,0.3,1.5c-0.1,0.8-0.3,1-0.8,0.7
		C66.2,29.6,63.4,29.4,60.3,29.6z M45.7,10.3c-0.5-0.4-0.7-0.7-0.3-0.8c0.4-0.1,1.2-0.5,2.4-1.2c1.1-0.7,2.7-1.6,4.9-2.7
		c0.5-0.2,0.6,0,0.2,0.5c-0.5,0.8-1.2,1.8-2.1,2.8c-1,1-1.8,1.9-2.4,2.7c-0.2,0.7-0.5,0.8-1.1,0.2C46.6,11.3,46,10.8,45.7,10.3z
		 M51.9,28.5c1.9-0.4,4-0.7,6.4-1l0,0c0.1-0.2,0.1-1,0.2-2.4c-1.7,0.3-2.7,0.5-2.9,0.7c-0.7,0.5-1.2,0.5-1.3,0.1
		c-0.2-0.4-0.3-0.8-0.5-1.2c-0.3-0.4-0.3-0.7,0-0.7c0.2,0,0.5,0,0.9-0.1c0.9-0.2,2.2-0.4,3.9-0.7c0-0.4,0-0.9,0-1.5
		c0-0.1,0-0.3,0-0.4c-1.6,0.3-2.5,0.4-2.6,0.5c-0.8,0.5-1.3,0.5-1.4,0.1c-0.2-0.3-0.3-0.8-0.5-1.3c-0.3-0.5-0.3-0.7,0-0.7
		c0.3,0,0.6,0,1-0.1c0.8-0.2,2-0.3,3.5-0.5c-0.1-1-0.2-1.7-0.2-2.2c-1.9,0.3-3,0.5-3.2,0.7c-0.8,0.5-1.4,0.5-1.4,0.1
		c-0.1-0.4-0.3-0.9-0.5-1.3c-0.2-0.3-0.2-0.5-0.2-0.6c-0.3,0.2-0.6,0.4-0.9,0.6c0,0,0,0,0.1,0c0.4,0.3,0.5,0.6,0.3,0.9
		c-0.2,0.3-0.4,1.2-0.4,2.5c-0.2,2.5-0.3,4.7-0.3,6.8C51.9,27.4,51.9,28,51.9,28.5z M61.4,3.8c-0.4-0.3-0.3-0.5,0.3-0.5
		c2.5,0.6,4.6,1.5,6.4,2.4c0.2,0.1,0.2,0.7,0.1,1.8c-0.1,1.1-0.3,1.8-0.7,1.9c-0.4,0.2-0.7,0.1-0.8-0.2c-0.2-0.3-0.5-0.7-0.8-1.2
		C64.1,6.2,62.5,4.8,61.4,3.8z"/>
	<path class="st1" d="M81.6,20.8c1.8-2.2,3.6-4.9,5.2-8.2c0.2-0.4,0.3-0.7,0.6-1.1c0.2-0.3,0.8-0.2,1.9,0.5c1.1,0.7,1.3,1.2,0.7,1.4
		c-0.5,0.3-0.9,0.7-1.4,1.2c-0.5,1-0.8,1.9-0.8,2.7c-0.2,4.2-0.3,7.4-0.3,9.5c-0.1,1.4-0.1,2.7-0.1,3.6c-0.2,0.7-1,0.8-2.3,0.3
		c-0.4-0.2-0.4-0.5-0.1-0.7c0.2-0.2,0.3-0.5,0.4-0.9l0.2-8.7c0-0.7-0.2-1.1-0.7-1.3c-0.2,0.3-0.4,0.6-0.5,0.8
		c-0.4,0.6-0.7,1.3-0.7,2c-0.2,0.8-0.8,1.4-1.8,2c-1,0.6-2.4,1.2-4,1.8c-1,0.3-1.2,0.1-0.5-0.7C78.5,23.8,79.8,22.4,81.6,20.8z
		 M86.1,5.9c1-1.3,1.5-2.1,1.6-2.6c0-0.4,0.3-0.3,0.9,0c0.5,0.4,0.9,0.9,1.4,1.4c0.4,0.5,0.5,0.8,0.3,0.9c-0.8,1.1-2,2.4-3.5,3.9
		c-1.6,1.6-3.4,2.8-5.3,3.7c-0.5,0.1-0.5-0.1-0.2-0.5C83.5,9.5,85.1,7.2,86.1,5.9z M91.3,29.5c2.6-1,4.8-2.5,6.6-4.4
		c-0.5-0.3-0.9-0.7-1.2-1.1c-0.7-0.8-1.8-1.5-3.3-2.2c-0.7-0.3-0.9-1.1-0.6-2.5c0.3-1.4,0.7-1.7,1.1-1.2c0.5,0.7,1.2,1.5,2.2,2.2
		c1,0.8,2,1.6,3,2.5c0.1,0.1,0.2,0.2,0.2,0.2c0.8-1.9,1.1-3.5,1-4.8c-0.1-0.7-0.6-1-1.5-0.8c-1,0.2-1.7,0.6-2.3,1.1
		c-0.5,0.2-0.9-0.1-1.3-0.9c-0.5-0.8-0.5-1.2-0.2-1.2c0.4,0.1,1.5-0.2,3.3-0.7c1.8-0.5,3.2-0.7,4.3-0.7c0.9,0.1,1.6,0.3,2.2,0.7
		c0.4,0.3,0.4,0.7-0.1,1.1c-0.3,0.4-0.9,1.7-1.8,3.8c-0.7,1.6-1.3,2.9-1.9,3.9c0.2,0.2,0.5,0.4,0.7,0.7c0.7,0.7,2.1,1.5,4.4,2.3
		c2,0.9,3.6,1.7,4.6,2.3c0.9,0.5,1.4,0.9,1.4,1.2c-0.1,0.2-0.4,0.3-1,0.4c-3.1,0.3-6,0.2-8.6-0.3c-0.5,0-0.7-0.6-0.7-1.9
		c-0.2-1.3-0.8-2.3-2-2.9c-0.6,0.7-1.2,1.3-1.9,1.9c-1.5,1.3-3,2.2-4.6,2.6c-1.6,0.5-2.9,0.6-3.8,0.5c-1.6-0.2-1.9-0.3-1-0.6
		C89.5,30.4,90.4,30,91.3,29.5z M106.4,13.5c-2.9,0.8-4.7,0.8-5.3-0.2c-0.9-1.5-1.1-3-0.6-4.7c0.5-1.6,0.3-2.6-0.3-3
		c-0.8-0.3-1.8-0.1-3,0.8c-0.4,0.2-0.7,0.9-0.7,2c-0.1,1.1,0,2.2,0.3,3.2c0.1,0.5-0.1,1-0.5,1.7c-1.3,1.4-2.7,2.2-4.1,2.5
		c-0.5,0.2-0.7,0-0.4-0.5c1.4-2.1,2.3-3.6,2.6-4.6c0.7-1.4,0.8-3.3,0.5-5.6c-0.2-0.6,0.2-0.8,1.2-0.7c0.5-0.1,1.4-0.4,2.9-1.1
		c1.5-0.7,2.6-0.8,3.6-0.5c1.7,0.4,2.4,0.9,2,1.5c-0.8,0.6-1.4,1.6-1.7,2.9c-0.4,1.3-0.2,2.4,0.5,3c0.7,0.6,2,0.7,4.1,0.4
		c0.5-0.2,0.7,0.2,0.7,1.1C107.7,12.9,107.2,13.4,106.4,13.5z"/>
	<path class="st0" d="M118.6,18c-0.8-1.4-0.4-1.9,1.4-1.4c4.1-0.8,9-1.5,14.7-2.2c2.7-0.3,5.2-0.4,7.6-0.5c2.4,0,3.7-0.2,4.3-0.3
		c0.2-0.1,0.5,0.2,0.7,0.7c0.2,0.6,0.4,0.9,0.8,1.2c0.3,0.2,0.4,0.9,0.4,1.9c-0.1,1-0.4,1.4-1,1c-3.7-1-8.2-1.3-13.2-0.9
		c-5.9,0.5-10.5,1.3-13.7,2.3C120,19.9,119.4,19.4,118.6,18z"/>
	<path class="st0" d="M178.2,16.3c-0.6,0.4-0.8,3.6-0.7,9.5c0,0.6-0.5,1-1.6,1.2c-1.2,0.2-1.7,0-1.5-0.6c0-0.9,0-1.7,0-2.5
		c-1.2,0.2-2.2,0.3-3.1,0.5c-0.7,0.5-1.4,1.2-2,2c-1.4,1.6-2.6,2.7-3.4,3.2c-0.9,0.6-1.4,1.2-1.5,1.8c0,0.6-0.4,1-1.1,1.1
		c-1.9,0.8-3.8,1.1-5.7,0.8c-0.5-0.1-0.4-0.3,0.1-0.5c1.3-0.8,2.6-1.5,4.1-2c0.9-0.5,2.4-1.6,4.6-3.5c1-0.9,1.6-1.6,1.9-2.3
		c-1,0.2-1.6,0.4-1.7,0.5c-0.2,0.1-0.2,0.1-0.2,0.1c0,0.6-0.3,1-1,1.2c-0.7,0.2-1,0-0.9-0.8c-0.2-3.5-0.2-6.3,0-8.7
		c0-0.5,0.2-0.9,0.4-1c0.3-0.1,0.8-0.2,1.7-0.5c3.6-0.9,6.2-1.4,7.9-1.4c0.8,0,1.8,0.2,3,0.6C178.5,15.2,178.8,15.7,178.2,16.3z
		 M160,13.2c-0.2-2.8-0.2-4.8,0.2-6.1c0.3-1.2,0.5-2,0.6-2.6c-0.1-0.1-0.1-0.2-0.1-0.2c-0.3-0.4-0.3-0.7,0.1-0.7c0.3,0,0.6,0,1,0
		c0.9-0.2,2.2-0.3,4-0.6c0.9-0.1,2.4-0.3,4.6-0.6c0.2-0.1,0.4,0.3,0.5,1.2c0.1,0.9-0.2,1.2-0.9,0.8c-0.5,0-1,0.1-1.5,0.1
		c-0.7,1-1.1,1.7-1.1,1.8c-0.1,0.1-0.1,0.2,0,0.2c0.5,0,1.1,0,1.7,0.1c1.9,0.7,2.5,1.2,1.9,1.4c-1.1,0.8-1.7,1.7-1.9,2.6
		c0,0.3-0.2,0.4-0.4,0.4c-0.3,0-0.7,0-0.9,0l0,0.1c-0.7,0.8-1.1,1.4-1.2,1.5c0.6-0.1,1.2-0.2,1.7-0.2c0.2,0,0.4,0,0.7-0.2
		c0.2-0.1,0.4,0.3,0.6,1.1c0,0.8-0.2,1.2-0.7,1c-1.7,0.1-3.2,0.3-4.5,0.5c-1.4,0.3-2.4,0.5-2.9,0.6c-0.8,0.4-1.2,0.2-1.2-0.6
		C160.2,14.2,160.1,13.7,160,13.2z M165.1,8.2c-1.3,0.4-2.1,0.6-2.5,0.8c-0.4,0.1-0.7,0.2-0.8,0.3c-0.1,0.2-0.1,0.3-0.1,0.5
		c0.3,0.2,0.7,0.3,1.3,0.2c0.6-0.1,1.3-0.2,2.1-0.3c0.8-0.1,1.3-0.2,1.6-0.5c0.2,0,0.4-0.2,0.6-0.5c0.2-0.2,0.2-0.5,0.2-0.7
		C167.2,7.7,166.4,7.8,165.1,8.2z M162.2,13.1c0.2,0.2,0.9,0.1,2.4-0.2c0.3-0.6,0.4-1.1,0.3-1.6c-0.4,0.1-0.8,0.2-1.2,0.2
		c-0.8,0.2-1.4,0.3-1.8,0.5C161.9,12.4,162,12.8,162.2,13.1z M162.9,7.4c0.5-0.2,1.4-0.4,2.5-0.7c0.3-0.8,0.4-1.4,0.3-1.8
		c-1.3,0.3-2.1,0.5-2.5,0.6c-0.3,0.5-0.6,1.2-0.8,2.1C162.4,7.5,162.6,7.4,162.9,7.4z M166.7,20.9c2.1-0.3,4.3-0.8,6.5-1.2
		c0.2,0,0.4,0.2,0.5,0.7c0,0.5-0.1,0.8-0.2,0.8c-2,0.3-4.1,0.7-6.4,1.3c-0.3,0.1-0.6,0.2-0.7,0.3c0,0.2,0,0.5,0,0.8
		c1.1-0.2,3.7-0.5,8-1.2c0,0,0,0,0.1,0c0-2.7,0-4.2,0-4.6c-0.1-0.5-0.2-0.9-0.3-1c-0.8-0.6-2.1-0.7-3.8-0.2c-1.7,0.5-2.8,1-3.2,1.7
		c-0.1,0.1-0.1,0.1-0.1,0.1c0.2,0.1,0.3,0.1,0.5,0c1.7-0.3,3.5-0.7,5.3-1.1c0.2-0.1,0.4,0.2,0.5,0.7c0,0.5-0.1,0.8-0.2,0.8
		c-1.6,0.2-3.3,0.6-5.2,1.2c-0.7,0.2-1.2,0.5-1.5,0.9c-0.1,0.1-0.1,0.2,0,0.3C166.4,20.9,166.5,20.9,166.7,20.9z M170.8,10.5
		c1.4-2.5,2.9-5.4,4.5-8.8c0.2-0.5,0.5-0.5,1.1-0.2c0.5,0.4,1,0.7,1.4,0.9c0.4,0.3,0.3,0.6-0.2,1c-0.6,0.7-1.2,1.5-1.7,2.4
		c0.6,0,1.3-0.1,2.1-0.3c1.3-0.3,2.8-0.7,4.7-1c0.3,0,0.5,0.3,0.6,1c0,0.7-0.2,1.2-0.4,1.2c-1.6,0.7-3.7,1.3-6.4,1.7
		c-0.6,0.2-1.1-0.2-1.5-1c-0.6,0.8-1.2,1.5-1.7,2.1c-0.7,0.8-1.4,1.3-1.7,1.6C170.4,11.8,170.1,11.6,170.8,10.5z M180.5,33.9
		c-2.5,0.1-4.4,0-5.7-0.3c-0.5,0-0.9-0.1-1.2-0.1c-0.3,0-1-0.9-2-2.8c-0.4-0.7-0.5-1.6-0.3-2.9c0.2-1.2,0.2-2,0.1-2.4
		c-0.1-0.4,0.3-0.6,1.2-0.5c0.8,0.1,1,0.5,0.7,1c-0.3,0.7-0.5,1.5-0.4,2.3c0,0.8,0.1,1.4,0.4,1.7c0.8,0.8,2.4,1.3,4.8,1.3
		c2.3,0,3.9-0.4,4.7-1.3c0.5-0.7,0.8-2.8,0.7-6.1c-0.1-0.7,0.1-0.8,0.4-0.3c1.2,2.9,2,5.4,2.4,7.5c0.2,1.4,0.3,2.2,0.3,2.3
		c-0.1,0.2-0.4,0.3-0.9,0.3C184.7,33.8,182.9,33.9,180.5,33.9z M174.4,11.2c-0.2-0.4,0-0.6,0.7-0.5c1.4-0.1,2.5-0.3,3.6-0.6
		c1-0.3,1.8-0.5,2.4-0.6c0.4,0,0.6,0.3,0.7,1c0,0.7-0.2,1.1-0.5,1.2c-1,0.3-1.9,0.6-2.7,0.9c-0.8,0.3-1.4,0.4-1.7,0.2
		c-0.4-0.2-0.9-0.1-1.5,0.1c-0.4,0.2-0.6,0-0.6-0.4C174.7,12,174.6,11.6,174.4,11.2z"/>
</g>
</svg>
